<svg width="526" height="230" xmlns="http://www.w3.org/2000/svg" xmlns:xlink="http://www.w3.org/1999/xlink" overflow="hidden"><defs><clipPath id="clip0"><path d="M0 0 526 0 526 230 0 230Z" fill-rule="evenodd" clip-rule="evenodd"/></clipPath><clipPath id="clip1"><path d="M287.664 74.2081 306.74 69.1042 311.851 88.1521 292.775 93.256Z" fill-rule="evenodd" clip-rule="evenodd"/></clipPath><clipPath id="clip2"><path d="M287.664 74.2081 306.74 69.1042 311.851 88.1521 292.775 93.256Z" fill-rule="evenodd" clip-rule="evenodd"/></clipPath><clipPath id="clip3"><path d="M287.664 74.2081 306.74 69.1042 311.851 88.1521 292.775 93.256Z" fill-rule="evenodd" clip-rule="evenodd"/></clipPath></defs><g clip-path="url(#clip0)"><rect x="0" y="0" width="525.239" height="230" fill="#FFFFFF" transform="scale(1.00145 1)"/><rect x="0" y="0" width="525.239" height="230" fill="#F2F2F2" transform="scale(1.00145 1)"/><path d="M0 0 525.239 0.000104835" stroke="#7C7C7B" stroke-width="1.99711" stroke-miterlimit="8" fill="none" fill-rule="evenodd" transform="matrix(1.00145 0 -0 1 0 184)"/><path d="M0.0584897 46.9179 0.146224 38.8357 2.07638 38.5089C5.26407 37.9443 22.0506 35.8644 26.8175 35.4187 36.7608 34.4678 46.5578 34.5867 57.6123 35.805 66.649 36.7855 80.1309 38.598 82.295 39.1329L82.8799 39.2815 82.8799 47.1259 82.8799 55 41.4399 55 0 55 0.0584897 46.9179ZM13.8036 51.1669C15.4413 50.6024 16.962 48.8493 17.3422 47.0961 17.8394 44.6596 16.6403 42.2231 14.4177 41.1534 12.0781 40.054 9.76778 40.5294 8.13007 42.4311 6.5216 44.3031 6.31689 46.9476 7.60366 48.9384 8.36403 50.0972 9.12439 50.6915 10.5574 51.1966 11.8442 51.672 12.3706 51.672 13.8036 51.1669ZM72.0885 51.2858C74.6328 50.5726 76.5045 47.423 75.8904 44.9568 75.3932 43.1145 74.4574 41.8665 72.9659 41.1831 70.6263 40.054 68.2867 40.5294 66.649 42.4311 65.5669 43.6791 65.1575 45.0162 65.3622 46.6504 65.6254 48.8493 66.883 50.3944 69.0763 51.1966 70.2754 51.6423 70.8018 51.6423 72.0885 51.2858ZM72.03 36.1615C68.6961 35.6861 65.9179 35.2107 65.8301 35.1513 65.6839 35.0027 66.766 30.1594 68.9009 21.3344 69.4273 19.0762 70.1291 16.0454 70.4508 14.6191 70.7725 13.1631 71.0942 11.8855 71.2112 11.7666 71.2989 11.6775 71.5914 13.906 71.8546 16.7882 72.0885 19.6407 72.5857 24.8703 72.9366 28.436 73.2583 31.9719 73.5508 35.0324 73.5508 35.2107 73.5508 35.389 73.8432 35.5375 74.1942 35.5375 74.7791 35.5375 74.8376 35.4187 74.8376 34.4084 74.8376 33.7844 74.6036 30.9913 74.3111 28.1685 74.0479 25.3457 73.814 22.8498 73.814 22.6418 73.8432 22.315 78.4932 34.5867 79.1073 36.5478 79.3413 37.2609 79.6337 37.2609 72.03 36.1615ZM3.62636 36.6964C3.62636 36.3398 8.62723 23.0281 8.83194 22.7904 8.94892 22.6418 9.00741 22.9389 8.91968 23.4441 8.8027 24.2761 7.77913 35.0027 7.77913 35.3592 7.77913 35.6861 9.09515 35.5078 9.18288 35.2107 9.24137 35.0324 9.53382 32.0907 9.82627 28.7034 10.148 25.2863 10.8498 17.6499 11.4055 11.7072 11.9611 5.79416 12.4291 0.713128 12.4291 0.475418 12.4291 0.0594273 12.7215 0 14.7394 0 16.7281 0 17.2252 0.118855 18.395 0.713128 19.1554 1.12912 20.2959 1.45597 21.144 1.54511 21.9044 1.60454 22.6063 1.75311 22.694 1.90167 22.7817 2.05024 22.3431 2.58509 21.7582 3.09022 18.2195 6.18044 18.8044 11.8855 22.8695 14.2031 24.01 14.8568 24.3025 15.1837 24.6534 16.2534 24.9166 16.9368 25.5015 17.9173 25.9987 18.3928L26.876 19.2544 26.2326 20.443C25.677 21.4235 25.5892 21.8693 25.677 23.2955 25.8232 25.4943 26.7298 26.8314 28.6599 27.812 30.0637 28.4954 31.2335 28.5548 33.0467 28.02 33.4853 27.9011 33.6316 27.9903 33.7486 28.4954 34.158 30.0999 36.2051 31.5856 37.9891 31.5856 39.1588 31.5856 40.7966 30.6942 41.5569 29.6542 42.3173 28.6142 42.3173 25.6429 41.5569 24.5732 40.7088 23.3846 38.9541 22.5824 37.5504 22.7309L36.3513 22.8795 36.0296 21.5424C35.7957 20.6807 35.357 19.8784 34.6844 19.1653L33.6901 18.0956 34.2457 17.3528C35.0646 16.2237 35.2108 13.6089 34.5089 12.2123 34.2165 11.6478 33.7193 10.9346 33.3684 10.6078 32.8712 10.1324 32.7835 9.83522 32.842 8.82496 32.9297 7.69584 33.0174 7.57698 34.158 6.98271 34.8306 6.65586 35.8542 5.85359 36.4391 5.19989 37.4334 4.10048 38.6032 1.60454 38.6032 0.534846 38.6032 0.0297137 38.8664 0 54.3662 0L70.1584 0 70.3046 1.12912C70.3923 1.75311 70.5678 3.38736 70.714 4.7839 70.9772 7.6067 71.2697 6.0913 66.8537 24.8703 66.0056 28.4954 65.1575 32.1205 64.982 32.9524 64.8066 33.7547 64.6019 34.5867 64.4849 34.765 64.3387 35.0027 62.7009 34.9135 57.3199 34.3787 46.821 33.309 41.4399 33.0713 35.24 33.4279 28.6015 33.7844 16.5818 35.0027 9.29986 36.0427 2.92448 36.9638 3.62636 36.8746 3.62636 36.6964ZM54.5709 27.8714C56.2378 26.98 57.6708 26.2372 57.7001 26.2074 57.7293 26.148 57.2906 25.8212 56.735 25.4349 56.1501 25.0486 55.6822 24.6623 55.6822 24.5435 55.6822 24.4246 56.3548 23.8898 57.1737 23.3549 59.5425 21.7801 59.8642 21.483 59.6887 20.9778 59.601 20.7401 59.3963 20.5321 59.2793 20.5321 59.1331 20.5321 57.9048 21.4533 56.5595 22.5527 53.8398 24.7515 53.8982 24.5138 55.536 25.6429 56.0039 25.94 55.8577 26.1183 53.4596 27.7228 52.0558 28.7034 51.0323 29.4759 51.2077 29.4759 51.3832 29.4759 52.9039 28.7628 54.5709 27.8714ZM46.6455 24.0086C46.8795 22.1664 47.0257 20.6213 46.9965 20.5618 46.9087 20.4727 46.1484 20.7104 45.0078 21.1858 44.5984 21.3641 44.5399 21.1561 44.5399 18.7493 44.5399 16.1048 44.4229 15.6591 43.6918 15.9562 43.3116 16.1048 43.3116 17.6796 43.6626 21.2453 43.8088 22.4932 43.8673 22.6121 44.2767 22.3744 44.5691 22.2258 45.0663 21.9881 45.4465 21.8693L46.0899 21.6018 45.9436 24.692C45.8267 26.4749 45.8559 27.6634 46.0021 27.5446 46.1191 27.4257 46.4116 25.8212 46.6455 24.0086ZM51.7634 24.0086C52.9332 22.2258 53.869 20.651 53.869 20.5321 53.869 20.4133 53.2256 20.235 52.436 20.1161 51.6756 20.027 51.0323 19.8487 51.0323 19.7002 51.0323 19.5813 51.6171 18.2739 52.319 16.8179 53.0501 15.362 53.6058 14.1437 53.5766 14.0843 53.1671 13.7574 52.319 13.4603 52.2313 13.6386 51.7049 14.53 49.4823 20.5916 49.5993 20.7996 49.687 20.9481 50.2719 21.067 50.9153 21.067 51.6171 21.067 52.0558 21.1858 52.0558 21.3641 52.0558 21.5424 51.4124 22.8795 50.6228 24.3949 49.8625 25.8806 49.2191 27.2474 49.2191 27.4257 49.2191 27.9011 49.453 27.5743 51.7634 24.0086Z" fill="#D68D87" fill-rule="evenodd" transform="matrix(1.00145 0 -0 1 420 109)"/><path d="M68.6084 18.6229C67.2047 17.8687 66.9707 17.1435 66.8537 13.0244L66.766 9.25342 41.2937 9.25342 15.7922 9.25342 15.7922 13.0824 15.7922 16.9404 15.0026 17.8397 14.1837 18.7389 9.47533 18.7389 4.76691 18.7389 4.00654 17.9557 3.24618 17.1725 3.15844 13.1985 3.07071 9.25342 1.54998 9.25342 0 9.25342 0 4.61221 0 0 41.4399 0 82.8799 0 82.8799 4.61221 82.8799 9.25342 81.3592 9.25342 79.8092 9.25342 79.7214 13.0244C79.6045 17.1725 79.4582 17.6946 78.1422 18.5068 77.4111 18.942 76.8262 19 73.2876 19 70.3338 19 69.1056 18.8839 68.6084 18.6229Z" fill="#7C7C7B" fill-rule="evenodd" transform="matrix(1.00145 0 -0 1 420 166)"/><path d="M20.9804 55.3495C19.558 54.226 19.4691 52.7476 20.7137 51.4762 21.8398 50.3527 23.0844 50.264 24.2401 51.2397 25.5735 52.3633 25.5735 54.0486 24.2697 55.2904 23.5289 55.9704 21.7805 56 20.9804 55.3495ZM13.6017 52.1858C12.446 51.4762 11.883 50.471 11.883 49.1996 11.883 47.5734 12.5645 46.4498 13.9869 45.8289 15.5871 45.1193 16.7428 45.3559 18.0467 46.6568 18.9061 47.5143 19.0542 47.8099 19.0542 48.8743 19.0542 49.5544 18.8764 50.4414 18.669 50.8553 17.78 52.5407 15.2908 53.1911 13.6017 52.1858ZM12.2978 43.7888C11.2607 43.1679 10.6384 42.0148 10.6384 40.7138 10.6384 39.7381 10.6087 39.679 9.48266 39.3833 8.17879 39.0285 6.63786 37.8163 6.01556 36.6336 4.85986 34.416 5.98593 31.1637 8.35659 29.9514 9.45303 29.3897 9.54193 29.2714 9.30486 28.7983 9.15669 28.5026 8.91963 27.9409 8.80109 27.5565 8.62329 26.8765 8.68256 26.7877 9.60119 26.3738 10.9643 25.7529 12.2089 24.5111 12.8016 23.151 13.5721 21.4065 12.9794 21.1404 12.0904 22.7962 9.69009 27.1721 3.14113 27.1426 0.888999 22.7371 0.237067 21.4657 0 19.3664 0.385233 17.9768 0.740833 16.6463 1.92617 14.9905 2.87443 14.4879 3.556 14.1331 3.61526 14.1626 4.65243 15.1975 5.63033 16.2027 7.55649 17.1193 8.53439 17.0602 8.77146 17.0602 8.59366 16.9124 8.14916 16.7645 7.26016 16.4393 5.74886 15.3749 5.0673 14.6061 4.20793 13.5713 3.76343 11.9451 3.88196 10.2893 4.03013 8.16051 5.0673 6.50475 6.96383 5.35164 8.17879 4.64203 8.65293 4.52376 10.105 4.52376 11.2903 4.52376 12.1497 4.67159 12.9201 5.05597 13.9573 5.55861 15.439 6.94826 15.676 7.65787 15.7649 7.8944 16.1205 7.86484 17.1873 7.5396 19.8247 6.77085 22.4028 7.18479 24.7142 8.78141 26.4329 9.9641 26.67 10.4076 25.9291 10.9398 25.6032 11.1763 25.1587 11.7381 24.9216 12.1816L24.4771 13.0095 25.4254 12.1816C28.5369 9.46146 32.9522 11.3833 32.9522 15.434 32.9522 17.7994 31.0557 19.6917 28.7147 19.6917 28.0035 19.6917 27.4404 19.8099 27.4404 19.9282 27.4404 20.076 26.9959 20.7561 26.4329 21.4361 25.455 22.6779 22.788 24.4224 21.8694 24.4224 21.5434 24.4224 21.4545 24.8363 21.3656 26.1964 21.2767 27.6452 21.0989 28.2661 20.4766 29.2714 19.6469 30.6315 17.4837 32.169 16.2094 32.3168 15.5871 32.4055 15.5575 32.4646 15.5279 34.3865 15.4982 36.1309 15.4093 36.4857 14.7574 37.3432 14.3425 37.8754 13.6313 38.5554 13.1868 38.8215 12.4164 39.2946 12.3867 39.3242 12.9498 39.3242 13.7202 39.3242 14.5203 38.9398 15.4093 38.0824L16.1205 37.4319 16.7725 38.0824C18.4023 39.7085 18.0467 42.6061 16.0613 43.7888 14.9945 44.4393 13.3646 44.4393 12.2978 43.7888ZM26.907 7.4509C25.4846 6.74129 24.7438 5.44034 24.892 3.87328 25.129 1.44879 27.6182 0 29.8704 1.00528 31.2039 1.59662 31.8854 2.72017 31.9151 4.22809 31.9151 5.76557 31.115 6.97782 29.7815 7.51003 28.448 8.04224 28.0627 8.01267 26.907 7.4509ZM17.3059 5.44034C15.0241 4.46462 15.5575 1.06441 18.0467 0.680042 18.9061 0.532207 19.1431 0.620908 19.9432 1.44879 21.1286 2.6019 21.1878 3.66631 20.1507 4.73073 19.2617 5.67687 18.3727 5.88384 17.3059 5.44034Z" fill="#6A4742" fill-rule="evenodd" transform="matrix(1.00145 0 -0 1 435 83)"/><path d="M110.039 33.8696C110.039 30.0072 109.739 26.1449 109.439 21.9855 109.139 20.7971 109.139 20.7971 109.139 20.7971 110.339 20.2029 110.339 20.2029 110.339 20.2029 110.938 19.9058 111.538 19.6087 111.838 19.3116 109.139 15.7464 104.942 12.7754 104.042 10.1014 103.143 7.42754 104.642 8.31884 106.141 8.61594 106.741 8.61594 106.741 7.72464 106.741 7.72464 107.34 7.72464 97.4459 3.26812 72.2599 1.48551 47.6735 0 32.382 16.9348 32.382 16.9348 32.382 16.9348 31.1827 17.8261 12.593 19.0145 4.79734 19.3116 1.799 23.471 0.599667 27.6304 0.899501 26.442 1.49917 25.2536 2.09883 24.0652 8.99501 24.0652 8.99501 24.0652 8.99501 24.0652 8.99501 24.0652 11.3937 24.9565 8.09551 28.5217 7.49584 29.1159 2.39867 29.1159 0.299834 29.1159 0 30.6015 0 32.087 0 33.5725 8.69517 34.7609 8.69517 34.7609 8.69517 34.7609 8.69517 36.5435 8.69517 36.5435 8.69517 36.5435 12.8928 36.5435 12.8928 36.5435 12.8928 36.5435 13.1927 35.9493 13.4925 35.6522 13.4925 35.6522 15.5913 30.8986 20.3887 27.9275 25.4859 27.9275 32.9817 27.9275 38.9784 33.8696 38.9784 41 77.6569 41 77.6569 41 77.6569 41 77.9567 37.7319 79.1561 35.6522 79.1561 35.6522 81.2549 30.8986 85.7524 27.9275 91.1494 27.9275 97.7457 27.9275 103.143 32.3841 104.342 38.3261 107.34 34.7609 107.34 34.7609 107.34 34.7609 110.639 35.3551 110.639 35.3551 110.639 35.3551 110.339 35.058 110.039 35.058 110.039 35.058L110.039 33.8696ZM71.9601 21.6884C71.9601 21.9855 71.6602 22.2826 71.3604 22.2826 64.764 22.2826 64.764 22.2826 64.764 22.2826 64.4642 22.2826 64.1644 21.9855 64.1644 21.6884 64.1644 21.3913 64.4642 21.0942 64.764 21.0942 71.3604 20.7971 71.3604 20.7971 71.3604 20.7971 71.6602 20.7971 72.2599 21.0942 71.9601 21.6884ZM75.8579 18.4203C75.8579 18.4203 54.5697 18.4203 42.8762 18.4203 42.8762 18.7174 42.8762 18.7174 42.5764 19.0145 42.2765 19.6087 41.377 19.9058 40.4775 19.9058 39.578 19.9058 39.578 19.9058 39.578 19.9058 38.3787 19.9058 36.8795 19.9058 35.98 18.4203 35.98 18.4203 35.98 18.4203 35.98 18.4203 35.98 18.4203 35.98 18.4203 35.98 18.4203 35.98 18.4203 35.98 18.4203 35.98 18.4203 35.3804 17.529 36.5797 14.8551 36.5797 14.8551 37.1794 13.0725 38.0789 11.8841 39.2782 11.587 39.578 11.2899 39.8779 11.2899 40.1777 11.2899 41.0772 11.2899 41.6769 11.587 42.2765 12.1812 47.0739 8.91304 53.97 5.94203 59.6669 5.34783 70.1611 4.75362 76.1577 5.05072 76.1577 5.05072L75.8579 18.4203ZM101.644 21.6884C101.943 21.9855 101.644 22.2826 101.344 22.2826 94.4476 22.2826 94.4476 22.2826 94.4476 22.2826 94.1477 22.2826 93.8479 21.9855 93.8479 21.6884 93.8479 21.3913 94.1477 21.0942 94.4476 21.0942 101.344 20.7971 101.344 20.7971 101.344 20.7971 101.644 20.7971 101.943 21.0942 101.644 21.6884ZM77.6569 18.4203C77.6569 5.05072 77.6569 5.05072 77.6569 5.05072 77.6569 5.05072 95.3471 6.53623 98.9451 9.21014 98.9451 9.21014 99.5447 17.529 102.543 18.4203L77.6569 18.4203Z" fill="#7C7C7B" fill-rule="evenodd" transform="matrix(1.00145 0 -0 1 96 131)"/><path d="M0.998553 0C0 0.250005 0 0.750015 0 1.00002 0 0.750015 0 0.250005 0.998553 0Z" fill="#7C7C7B" fill-rule="evenodd" transform="matrix(1.00145 0 -0 1 96 159)"/><path d="M1.99711 1.16667C2.24674 2.04168 2.74602 3.20835 2.99566 4.37502 2.74602 7.58338 2.24674 10.7917 1.74747 14.0001 1.49783 13.7084 0.998553 13.4167 0.499276 12.8334 0.499276 9.04172 0.499276 4.95836 0 1.16667 0.499276 0.875005 0.998553 0.291668 1.49783 0 1.74747 0.291668 1.74747 0.583337 1.99711 1.16667Z" fill="#7C7C7B" fill-rule="evenodd" transform="matrix(1.00145 0 -0 1 208 152)"/><path d="M0 0C0.316614 2.77778 0.949843 5 0.949843 5 12.9812 5 12.9812 5 12.9812 5 12.9812 2.77778 12.9812 2.77778 12.9812 2.77778 6.6489 2.77778 6.6489 2.77778 6.6489 2.77778 6.6489 0.555555 6.6489 0.555555 6.6489 0.555555L0 0Z" fill="#7C7C7B" fill-rule="evenodd" transform="matrix(1.00145 0 -0 1 96 167)"/><path d="M11.4834 0C5.13729 0 0 5.07791 0 11.6493 0 17.922 5.13729 22.9999 11.4834 22.9999 17.8294 22.9999 22.9667 17.922 22.9667 11.6493 22.9667 5.07791 17.8294 0 11.4834 0ZM11.4834 18.2207C7.85703 18.2207 4.8351 15.2337 4.8351 11.6493 4.8351 7.76622 7.85703 4.77921 11.4834 4.77921 15.1097 4.77921 18.1316 7.76622 18.1316 11.6493 18.1316 15.2337 15.1097 18.2207 11.4834 18.2207Z" fill="#7C7C7B" fill-rule="evenodd" transform="matrix(1.00145 0 -0 1 176 161)"/><path d="M0 1.99999C-3.81387e-16 0.895425 0.670601 0 1.49783 0 2.32506 -5.09251e-16 2.99566 0.895425 2.99566 1.99999 2.99566 3.10455 2.32506 3.99998 1.49783 3.99998 0.670601 3.99998 -5.72081e-16 3.10455 0 1.99999Z" fill="#7C7C7B" fill-rule="evenodd" transform="matrix(1.00145 0 -0 1 186 170)"/><path d="M11.3342 0C5.07057 0 0 5.07791 0 11.6493 0 17.922 5.07057 22.9999 11.3342 22.9999 17.8961 22.9999 22.9667 17.922 22.9667 11.6493 22.9667 5.07791 17.8961 0 11.3342 0ZM11.3342 18.2207C7.75499 18.2207 4.7723 15.2337 4.7723 11.6493 4.7723 7.76622 7.75499 4.77921 11.3342 4.77921 15.2117 4.77921 18.1944 7.76622 18.1944 11.6493 18.1944 15.2337 15.2117 18.2207 11.3342 18.2207Z" fill="#7C7C7B" fill-rule="evenodd" transform="matrix(1.00145 0 -0 1 110 161)"/><path d="M0 1.99999C-5.08516e-16 0.895425 0.894135 0 1.99711 0 3.10008 -5.09251e-16 3.99421 0.895425 3.99421 1.99999 3.99421 3.10455 3.10008 3.99998 1.99711 3.99998 0.894135 3.99998 -7.62775e-16 3.10455 0 1.99999Z" fill="#7C7C7B" fill-rule="evenodd" transform="matrix(1.00145 0 -0 1 120 170)"/><path d="M7.98842 0.857138C3.25454 0 3.25454 0 3.25454 0 0 3.99998 0 3.99998 0 3.99998 7.39669 3.99998 7.39669 3.99998 7.39669 3.99998 7.39669 3.99998 7.69256 2.85713 7.98842 0.857138Z" fill="#7C7C7B" fill-rule="evenodd" transform="matrix(1.00145 0 -0 1 201 168)"/><path d="M4.99276 5.5417C4.46721 1.16667 4.46721 1.16667 4.46721 1.16667 4.20443 0.583337 3.4161 0 2.62777 0.583337 0.788331 1.16667 0 5.5417 0 5.83337 0.525554 7.00004 1.83944 6.70837 3.4161 6.70837 4.20443 6.70837 4.99276 6.12503 4.99276 5.5417Z" fill="#7C7C7B" fill-rule="evenodd" transform="matrix(1.00145 0 -0 1 133 143)"/><path d="M8.47257 4.26083C8.47257 3.95648 8.47257 3.95648 8.47257 3.95648 7.86739 1.52172 7.86739 1.52172 7.86739 1.52172 7.86739 0.60869 6.95961 0 6.05184 0.304345 1.51296 1.21738 1.51296 1.21738 1.51296 1.21738 0.605184 1.52172 0 2.13041 0.302592 3.04345 0.605184 5.47821 0.605184 5.47821 0.605184 5.47821 0.907775 6.39124 1.81555 6.99993 2.42073 6.69559 6.95961 5.78255 6.95961 5.78255 6.95961 5.78255 7.2622 5.78255 7.2622 5.78255 7.2622 5.78255 9.98553 5.17386 9.98553 5.17386 9.98553 5.17386 9.68294 3.95648 9.68294 3.95648 9.68294 3.95648L8.47257 4.26083Z" fill="#7C7C7B" fill-rule="evenodd" transform="matrix(1.00145 0 -0 1 23 140)"/><path d="M1.19826 5.54161C1.19826 5.54161 1.19826 5.24995 1.19826 5.24995 0.599132 2.91664 0.599132 2.91664 0.599132 2.91664 0.599132 2.33331 1.19826 1.45832 1.7974 1.16666 6.59045 0.291664 6.59045 0.291664 6.59045 0.291664 7.48915 0 8.08828 0.583328 8.38784 1.45832 8.68741 3.79163 8.68741 3.79163 8.68741 3.79163 8.98698 4.66662 8.38784 5.24995 7.48915 5.54161 3.29522 6.41661 3.29522 6.41661 3.29522 6.41661 2.99566 6.41661 2.99566 6.41661 2.99566 6.41661 0.299566 6.99993 0.299566 6.99993 0.299566 6.99993 0 5.83328 0 5.83328 0 5.83328L1.19826 5.54161Z" fill="#7C7C7B" fill-rule="evenodd" transform="matrix(1.00145 0 -0 1 81 129)"/><path d="M47.2886 9.51134C45.4698 5.82953 42.7416 0 35.7696 1.53409 8.18457 7.0568 8.18457 7.0568 8.18457 7.0568 0.909396 8.59089 0.909396 15.034 0.606264 19.0227 0 23.3181 0 26.9999 0 26.9999 50.9262 16.5681 50.9262 16.5681 50.9262 16.5681L47.2886 9.51134ZM1.81879 20.2499C1.81879 15.6477 0.606264 13.5 6.66891 12.2727 39.104 5.52271 39.104 5.52271 39.104 5.52271 44.8636 4.60226 44.8636 7.0568 46.6823 11.0454 48.8043 15.6477 48.8043 15.6477 48.8043 15.6477 1.51566 25.4658 1.51566 25.4658 1.51566 25.4658L1.81879 20.2499Z" fill="#7C7C7B" fill-rule="evenodd" transform="matrix(1.00145 0 -0 1 32 120)"/><path d="M9.3523 8.48485C4.38389 9.69697 4.38389 9.69697 4.38389 9.69697 2.92259 10 1.4613 9.09091 1.16904 7.57575 0 2.12121 0 2.12121 0 2.12121 10.8136 0 10.8136 0 10.8136 0 11.6904 5.45454 11.6904 5.45454 11.6904 5.45454 11.9826 6.96969 11.1059 8.18181 9.3523 8.48485Z" fill="#7C7C7B" fill-rule="evenodd" transform="matrix(1.00145 0 -0 1 30 175)"/><path d="M10.1317 8.48485C4.74921 9.69697 4.74921 9.69697 4.74921 9.69697 3.16614 10 1.58307 9.09091 1.26646 7.57575 0 2.12121 0 2.12121 0 2.12121 11.3981 0 11.3981 0 11.3981 0 12.6646 5.45454 12.6646 5.45454 12.6646 5.45454 12.9812 6.66666 11.7147 8.18181 10.1317 8.48485Z" fill="#7C7C7B" fill-rule="evenodd" transform="matrix(1.00145 0 -0 1 85 164)"/><path d="M2.99566 1.24998C2.99566 1.99997 2.49638 2.74996 1.74747 2.99996 0.998553 2.99996 0.249638 2.49996 0.249638 1.74997 0 0.999986 0.499276 0.249996 1.24819 0 1.99711 0 2.74602 0.499993 2.99566 1.24998Z" fill="#7C7C7B" fill-rule="evenodd" transform="matrix(1.00145 0 -0 1 31 171)"/><path d="M71.2967 7.29113C70.398 0 70.398 0 70.398 0 0 14.2785 0 14.2785 0 14.2785 2.39653 21.5696 2.39653 21.5696 2.39653 21.5696 2.39653 22.7848 2.69609 24 3.89436 23.6962 70.398 10.3291 70.398 10.3291 70.398 10.3291 71.8958 10.0253 71.5962 8.81011 71.2967 7.29113ZM11.9826 20.3544C5.69175 21.8734 5.69175 21.8734 5.69175 21.8734 4.79305 21.8734 3.89436 21.2658 3.89436 20.3544 3.29522 16.7088 3.29522 16.7088 3.29522 16.7088 3.29522 15.7974 3.89436 15.1899 4.79305 15.1899 9.28654 16.1012 11.3835 17.6202 12.5818 18.8354 13.1809 19.443 12.8813 20.3544 11.9826 20.3544ZM59.6136 5.46835C57.5166 9.41771 57.5166 9.41771 57.5166 9.41771 56.9175 10.3291 55.4197 11.5443 54.521 11.5443 19.1722 18.8354 19.1722 18.8354 19.1722 18.8354 18.2735 19.1392 16.7757 18.5316 15.877 17.924 11.9826 14.8861 11.9826 14.8861 11.9826 14.8861 11.3835 14.2785 11.3835 13.6709 12.5818 13.3671 58.7149 3.94936 58.7149 3.94936 58.7149 3.94936 59.9132 3.64556 60.2127 4.25316 59.6136 5.46835ZM68.6006 8.81011C62.0101 10.0253 62.0101 10.0253 62.0101 10.0253 61.411 10.3291 60.8119 9.72151 61.1114 8.81011 61.7106 7.29113 63.2084 4.86075 67.1028 2.43038 67.7019 1.82278 68.6006 2.12658 68.6006 3.03797 69.7988 6.98733 69.7988 6.98733 69.7988 6.98733 70.0984 7.59493 69.4993 8.50632 68.6006 8.81011Z" fill="#7C7C7B" fill-rule="evenodd" transform="matrix(1.00145 0 -0 1 26 154)"/><path d="M0.332851 1.74997C0.332851 2.49996 1.3314 2.99996 2.32996 2.74996 3.32851 2.74996 3.99421 1.99997 3.66136 1.24998 3.66136 0.499993 2.66281 0 1.66425 0 0.665702 0.249996 0 0.999986 0.332851 1.74997Z" fill="#7C7C7B" fill-rule="evenodd" transform="matrix(1.00145 0 -0 1 90 159)"/><path d="M68.2163 8.45284C67.9184 7.24529 67.6205 6.64152 67.0247 6.03774 67.0247 6.03774 67.0247 6.03774 67.0247 6.03774 67.0247 6.03774 67.0247 6.03774 67.0247 6.03774 67.0247 6.03774 66.7268 5.73585 66.4289 5.73585 57.1944 0 57.1944 0 57.1944 0 7.1493 10.2642 7.1493 10.2642 7.1493 10.2642 0.893663 19.3208 0.893663 19.3208 0.893663 19.3208 0.893663 19.6227 0.595775 19.9245 0.595775 20.2264 0.297888 20.2264 0.297888 20.2264 0.297888 20.2264 0.297888 20.2264 0.297888 20.2264 0.297888 20.2264 0 21.1321 0 22.0378 0.297888 23.5472 0.893663 32 0.893663 32 0.893663 32 70.8973 17.8113 70.8973 17.8113 70.8973 17.8113L68.2163 8.45284ZM56.0029 17.2076C56.0029 17.2076 55.1092 17.2076 54.5134 17.2076 42.0022 21.434 29.193 24.151 16.0859 24.7547 15.4902 25.3585 14.8944 25.6604 14.8944 25.6604 14.8944 25.6604 4.46831 31.0944 2.08521 24.151 0.595775 19.3208 4.46831 19.3208 4.46831 19.3208 4.46831 19.3208 20.5542 18.717 21.15 20.8302 30.3845 19.9245 39.3212 18.1132 48.2578 15.3962 47.9599 12.9811 63.1522 7.24529 63.1522 7.24529 63.1522 7.24529 66.7268 6.03774 67.0247 10.8679 67.6205 18.1132 56.0029 17.2076 56.0029 17.2076Z" fill="#7C7C7B" fill-rule="evenodd" transform="matrix(1.00145 0 -0 1 25 136)"/><path d="M6.84115 6.08699C3.27185 7.00004 1.18977 6.08699 0.297441 3.65219 0.297441 3.0435 0 2.4348 0 2.13045 0 2.13045 0.297441 0.913049 0.892324 0.913049 1.78465 0.608699 1.18977 0.913049 1.48721 0.608699 1.48721 0.608699 1.48721 0.608699 1.48721 0.608699 1.48721 0.608699 1.48721 0.608699 1.48721 0.608699 1.78465 0.608699 1.78465 0.608699 1.78465 0.608699 5.0565 0.30435 10.7079 0 12.1951 1.2174 12.1951 1.2174 13.9797 2.73915 11.6002 4.56524 11.3028 4.56524 11.3028 4.56524 11.3028 4.56524 11.3028 4.56524 9.22068 5.78264 6.84115 6.08699Z" fill="#7C7C7B" fill-rule="evenodd" transform="matrix(1.00145 0 -0 1 28 156)"/><path d="M7.96573 6.71994C11.211 5.87994 12.9812 4.47996 12.6862 2.23998 12.6862 1.67998 12.6862 1.11999 12.3911 0.839992 12.3911 0.839992 11.8011 0 11.211 0 10.3259 0.279997 10.916 0 10.621 0.279997 10.621 0.279997 10.621 0.279997 10.621 0.279997 10.621 0.279997 10.621 0.279997 10.621 0.279997 10.3259 0.279997 10.3259 0.279997 10.3259 0.279997 7.08065 1.11999 2.06519 3.07997 0.885081 4.47996 0.885081 4.47996 0 6.43994 2.95027 6.99993 3.2453 6.99993 3.2453 6.99993 3.2453 6.99993 3.2453 6.99993 5.31049 6.99993 7.96573 6.71994Z" fill="#7C7C7B" fill-rule="evenodd" transform="matrix(1.00145 0 -0 1 78 145)"/><path d="M8.69707 0.923072C8.98698 1.84614 8.40717 2.46152 7.82737 2.46152 1.44951 3.69229 1.44951 3.69229 1.44951 3.69229 0.869707 3.99998 0.289902 3.3846 0.289902 2.76922 0 2.15383 0.579805 1.53845 1.15961 1.53845 7.24756 0 7.24756 0 7.24756 0 8.11727 0 8.69707 0.307691 8.69707 0.923072Z" fill="#7C7C7B" fill-rule="evenodd" transform="matrix(1.00145 0 -0 1 51 130)"/><path d="M1.99711 1.66661 0.285301 1.99994 0 0.333323 1.7118 0 1.99711 1.66661Z" fill="#7C7C7B" fill-rule="evenodd" transform="matrix(1.00145 0 -0 1 54 129)"/><path d="M26.2146 5.65715C3.35304 10.3714 3.35304 10.3714 3.35304 10.3714 0.609643 11 0.609643 9.74287 0.304821 8.17144 0 6.60001 1.52411 4.71429 3.96268 4.40001 23.4712 0.314286 23.4712 0.314286 23.4712 0.314286 25.605 0 27.7387 0.628572 28.0436 2.2 28.3484 4.08572 28.958 5.02858 26.2146 5.65715Z" fill="#7C7C7B" fill-rule="evenodd" transform="matrix(1.00145 0 -0 1 48 160)"/><path d="M40.7372 0C40.8849 0 41.8494 1.99545 41.8494 2.30096 41.8494 2.40939 41.9129 2.56649 41.9906 2.65009 42.0683 2.73381 42.3309 3.27056 42.5741 3.84312 42.8173 4.41556 43.1111 5.10008 43.2272 5.36436 43.3431 5.62851 43.5523 6.11495 43.6919 6.44517 43.9709 7.10511 44.1898 7.60366 44.8347 9.04722 45.0706 9.57565 45.3717 10.2602 45.5036 10.5685 45.9188 11.5381 46.1497 12.0652 46.5204 12.8903 46.7185 13.3306 46.9744 13.9071 47.0894 14.1714 47.2042 14.4355 47.4512 14.9932 47.6379 15.4106 47.8247 15.828 47.9776 16.2013 47.9776 16.2401 47.9776 16.2789 48.2012 16.8021 48.4746 17.4027 48.7479 18.0034 49.1108 18.8003 49.281 19.1736 49.4511 19.547 49.5903 19.8842 49.5903 19.923 49.5903 19.9619 49.7982 20.449 50.0523 21.0057 50.3064 21.5622 50.6143 22.2518 50.7367 22.5381 50.8591 22.8242 51.0546 23.0585 51.1713 23.0585 51.2881 23.0585 51.7002 22.8242 52.0872 22.5381 52.474 22.2518 53.4858 21.5492 54.3354 20.9768 55.185 20.4044 56.2358 19.6838 56.6704 19.3755 57.1052 19.0673 58.4154 18.1666 59.5822 17.3739 60.7489 16.5813 62.7188 15.2303 63.9597 14.3715 65.2006 13.5128 66.2791 12.8103 66.3562 12.8103 66.4335 12.8103 66.5208 12.7562 66.5504 12.6901 66.6374 12.4958 67.7765 11.6894 67.9641 11.6894 68.0587 11.6894 68.1362 11.6336 68.1362 11.5657 68.1362 11.4976 68.3901 11.3061 68.7006 11.1401 69.0111 10.9741 69.2651 10.7776 69.2651 10.7034 69.2651 10.6292 69.3352 10.5685 69.421 10.5685 69.5068 10.5685 70.4583 9.95202 71.5356 9.19853 72.6127 8.44503 73.5319 7.86629 73.5784 7.91244 73.6249 7.95846 73.4061 8.52094 73.0923 9.16221 72.4422 10.491 71.5229 12.4855 71.5229 12.5669 71.5229 12.6267 70.6792 14.4655 69.8141 16.2912 69.5122 16.9286 69.2651 17.4842 69.2651 17.526 69.2651 17.5678 69.0195 18.127 68.7193 18.769 68.4191 19.4108 67.9838 20.3503 67.7516 20.8568 67.5196 21.363 67.14 22.1918 66.908 22.6981 66.6758 23.2045 66.2406 24.1441 65.9403 24.786 65.6403 25.4279 65.3945 25.9809 65.3945 26.0152 65.3945 26.0495 65.1501 26.6052 64.8513 27.2501 64.2085 28.6373 63.5798 30.0098 63.0308 31.225 62.812 31.7094 62.5649 32.2308 62.4817 32.3837 62.1418 33.0087 62.37 33.0401 64.3464 32.6399 64.7898 32.5503 65.5519 32.4192 66.0396 32.3488 66.5275 32.2783 67.9426 32.0299 69.1844 31.7968 70.4262 31.5637 71.9155 31.3077 72.4939 31.2279 73.0725 31.1479 73.653 31.0435 73.7841 30.9955 73.9153 30.9477 74.4942 30.8356 75.0707 30.7466 75.6472 30.6575 76.4818 30.516 76.9253 30.4319 78.7209 30.0915 80.688 29.7481 81.6021 29.6156 82.1343 29.5383 82.8233 29.4005 83.133 29.3092 83.8742 29.091 83.9476 29.0987 83.8377 29.3835 83.7865 29.5156 83.6843 29.6237 83.6104 29.6237 83.5363 29.6237 82.5582 30.2362 81.4362 30.9848 80.3145 31.7334 79.3303 32.3459 79.2494 32.3459 79.1685 32.3459 79.1025 32.4016 79.1025 32.4697 79.1025 32.5375 78.8484 32.7291 78.5381 32.8951 78.2276 33.0612 77.9736 33.2576 77.9736 33.3318 77.9736 33.4062 77.9055 33.4668 77.8224 33.4668 77.7393 33.4668 76.9906 33.9171 76.1589 34.4676 75.327 35.0179 74.532 35.5404 74.3925 35.6286 74.2527 35.7166 73.4955 36.2209 72.7095 36.7492 71.9239 37.2775 71.2118 37.7389 71.1271 37.7743 71.0424 37.8099 70.8972 37.9032 70.8045 37.982 70.7118 38.0608 69.82 38.6607 68.8229 39.3152 66.7789 40.6565 66.8038 40.6476 61.7661 41.8932 61.2339 42.0248 60.5988 42.1941 60.355 42.2694 59.5447 42.5193 59.6862 42.3462 61.8556 40.4323 62.2548 40.0801 63.1536 39.2875 63.8527 38.671 66.322 36.4938 66.6513 36.154 66.2009 36.2473 65.9792 36.2933 64.9995 36.4097 64.0239 36.5059 63.0481 36.6021 61.7056 36.7486 61.0403 36.8314 57.9077 37.2213 56.3607 37.3604 56.2608 37.2613 56.2008 37.2016 56.2719 36.8641 56.4189 36.5108 56.7322 35.7581 56.935 35.2281 57.7376 33.0665 58.5444 30.8932 59.0943 29.4479 59.2604 29.0632 59.3366 28.8871 59.7 27.9143 60.0683 26.9016 60.4363 25.8887 60.8876 24.7358 61.0712 24.3395 61.4661 23.4868 62.3408 20.9338 62.2642 20.8576 62.2219 20.8155 58.2237 23.8392 55.6379 25.8688 55.3717 26.0779 54.7463 26.5578 54.2481 26.9354 51.9595 28.6703 50.6125 29.717 50.3159 29.9909 50.1385 30.1549 49.7938 30.4069 49.5499 30.5513 49.3061 30.6957 49.1065 30.8702 49.1065 30.9394 49.1065 31.0084 49.0158 31.0644 48.9048 31.064 48.7119 31.0626 48.2488 30.172 46.0334 25.5405 44.2422 21.7957 43.7845 20.7999 43.7845 20.6471 43.7845 20.5641 43.7234 20.4964 43.6488 20.4964 43.5741 20.4964 43.3817 20.9467 43.2212 21.4973 43.0608 22.0476 42.7903 22.9664 42.6206 23.5389 42.2007 24.9528 41.9494 25.83 41.6117 27.0617 41.2584 28.3497 40.7564 30.1106 40.4706 31.0649 40.352 31.4611 40.145 32.1817 40.011 32.6662 39.3563 35.032 39.3103 35.1483 39.0389 35.1246 38.7866 35.1025 35.0661 32.9675 33.1835 31.7645 32.7192 31.4678 32.3007 31.225 32.2535 31.225 32.2062 31.225 31.5825 30.8648 30.8674 30.4243 30.1524 29.984 29.536 29.6237 29.4977 29.6237 29.4595 29.6237 28.8491 29.2635 28.1414 28.823 27.4338 28.3827 26.7815 28.0225 26.6917 28.0225 26.6021 28.0225 26.5288 27.9504 26.5288 27.8624 26.5288 27.7742 26.4575 27.7023 26.3703 27.7023 26.2831 27.7023 25.7376 27.414 25.158 27.0617 24.5783 26.7094 24.0328 26.4212 23.9455 26.4212 23.8584 26.4212 23.7872 26.3664 23.7872 26.2997 23.7872 26.1612 23.1396 25.7297 23.0563 25.8125 23.0263 25.8421 23.1468 26.3696 23.3238 26.9844 23.5011 27.5994 23.7067 28.3547 23.7808 28.6629 23.8553 28.9712 24.1765 30.1241 24.495 31.225 24.8134 32.3258 25.0747 33.2806 25.0756 33.3468 25.0769 33.4127 22.7369 33.4684 19.8764 33.4705L14.6755 33.4741 15.3206 34.0454C16.4335 35.0312 18.9093 37.1722 19.6607 37.7988 19.919 38.0142 20.4995 38.5265 20.9508 38.9371 21.402 39.3477 22.0305 39.8881 22.3474 40.1381 22.6643 40.3881 23.0356 40.7004 23.1726 40.8325 23.6271 41.2708 25.7159 43.1031 26.1256 43.4232 26.7493 43.9104 26.6613 44.1622 25.9644 43.8853 25.787 43.815 25.1338 43.6436 24.5129 43.5048 18.7428 42.2142 19.02 42.3186 16.7977 40.5983 15.9248 39.9227 14.6911 39.0035 14.056 38.5557 13.4211 38.1079 12.8653 37.6969 12.8208 37.6424 12.7765 37.5881 12.0508 37.042 11.2083 36.4292 10.3656 35.8164 9.63986 35.2711 9.59554 35.2178 9.5511 35.1643 8.97064 34.7317 8.30537 34.2564 7.64009 33.781 6.33379 32.8134 5.40248 32.1061 4.47116 31.3987 3.22861 30.4817 2.64117 30.0683 2.05387 29.6548 1.21932 28.9823 0.786676 28.5738L0 27.8312 1.53208 27.9345C2.37463 27.9915 3.46328 28.1051 3.95103 28.1871 4.43891 28.269 5.45492 28.4093 6.20883 28.4986 6.96275 28.588 8.1239 28.7358 8.78918 28.8271 11.5015 29.1993 13.7774 29.4929 14.9735 29.6253 15.6696 29.7024 16.4479 29.8109 16.7033 29.8665 17.294 29.9954 17.5372 29.8552 17.345 29.4962 17.2645 29.3462 16.9 28.4308 16.5351 27.4621 16.1701 26.4932 15.8084 25.5565 15.7314 25.3804 15.6543 25.2042 15.324 24.3395 14.9975 23.4588 14.671 22.5781 14.3016 21.6304 14.1768 21.3529 14.052 21.0754 13.9498 20.7827 13.9498 20.7025 13.9498 20.6222 13.8111 20.2716 13.6416 19.9232 13.472 19.5748 13.281 19.0029 13.2172 18.652 13.0931 17.971 12.8622 17.4324 12.6297 17.2809 12.5513 17.2297 12.442 16.9056 12.3871 16.5603 12.3322 16.2153 12.2243 15.8916 12.1474 15.8412 12.0173 15.7558 11.5123 14.5412 11.2163 13.6016 11.1453 13.3763 10.9664 12.9598 10.8185 12.6761 10.6709 12.3924 10.5938 12.0901 10.6472 12.0041 10.7406 11.854 11.9347 12.5751 12.4867 13.1152 12.7205 13.3438 13.4435 13.7409 14.111 14.0073 14.6159 14.2088 15.8093 14.9994 16.329 15.4766 16.5354 15.6661 16.8785 15.8646 17.0916 15.9177 17.4184 15.9991 20.3941 17.7783 23.5453 19.7763 23.9887 20.0575 24.7029 20.4968 25.1324 20.7524 26.5098 21.5722 26.7173 21.6993 30.0391 23.7565 31.8368 24.8698 33.3789 25.7807 33.466 25.7807 33.5533 25.7807 33.6246 25.8394 33.6246 25.9112 33.6246 25.9829 33.8606 26.1659 34.1487 26.3181 34.6739 26.5951 34.8332 26.6895 35.8823 27.3472 36.1928 27.5417 36.525 27.7012 36.6205 27.7015 36.7192 27.7019 36.8799 27.0286 36.9927 26.1409 37.1019 25.2821 37.2573 24.1834 37.338 23.699 37.4187 23.2146 37.6012 21.9175 37.7434 20.8167 37.8856 19.7158 38.0677 18.3827 38.1479 17.8543 38.228 17.3258 38.3724 16.3171 38.4685 15.6126 38.5646 14.908 38.7433 13.6109 38.8658 12.7302 38.9883 11.8495 39.2024 10.3003 39.3419 9.28742 39.4812 8.27469 39.7034 6.6894 39.8355 5.76456 39.9678 4.83984 40.1088 3.83102 40.1489 3.52286 40.189 3.21458 40.3083 2.29579 40.4138 1.48114 40.5195 0.666494 40.665 0 40.7372 0Z" fill="#D68D87" fill-rule="evenodd" transform="matrix(1.00145 0 -0 1 79 89)"/><path d="M34.9889 0.118094C35.2137-0.185109 35.4292 0.120954 35.8464 0.751263 36.8002 2.1929 38.4641 3.73813 39.7474 4.37477 42.1716 5.57737 42.9079 5.75083 46.2348 5.90263 48.511 6.00622 49.6756 6.16518 49.9151 6.40463 50.1079 6.5973 51.1164 7.89286 52.157 9.28362 53.1972 10.6744 54.139 11.851 54.25 11.8986 54.3607 11.9462 54.4514 12.1005 54.4514 12.2417 54.4514 12.3825 54.5975 12.6517 54.7759 12.8399 54.9545 13.0279 55.2987 13.4576 55.5413 13.7943 55.784 14.1314 56.4547 15.04 57.0317 15.8141 57.6087 16.5879 58.0304 17.2715 57.9685 17.3336 57.9064 17.3955 56.9686 17.0251 55.8843 16.5104 54.8 15.9958 53.8689 15.5747 53.8152 15.5747 53.7615 15.5747 52.4524 14.9809 50.906 14.2552 49.3595 13.5297 47.4523 12.6411 46.6673 12.2811 45.8823 11.9211 44.5396 11.299 43.6833 10.8987 40.6231 9.46853 37.5118 8.04977 37.4354 8.04977 37.3927 8.04977 37.048 9.07134 36.6694 10.3201 36.2912 11.5689 35.7578 13.2912 35.484 14.1475 35.2102 15.0038 34.7957 16.3466 34.5625 17.1313 34.3296 17.9163 33.9404 19.1424 33.6975 19.8559 32.7533 22.6321 32.3962 23.8343 32.3962 24.237 32.3962 24.5526 32.1414 24.6562 31.365 24.6562 30.4632 24.6562 30.2795 24.5504 29.9017 23.813 29.402 22.8376 27.3366 18.9164 25.8359 16.0936 25.2669 15.0232 24.229 13.0397 23.5294 11.6857 22.83 10.3318 22.1613 9.12794 22.0436 9.01025 21.9261 8.89277 20.5284 9.61829 18.9376 10.6229 17.3471 11.6277 15.7252 12.6309 15.3337 12.8524 14.9425 13.0737 14.2719 13.4837 13.8439 13.7632 13.4156 14.0429 12.8967 14.3525 12.6905 14.4513 12.4842 14.5502 10.4274 15.8174 8.11963 17.2672 5.81211 18.717 3.76223 19.9815 3.56466 20.0769 3.36709 20.1727 2.85508 20.4843 2.42704 20.77 1.9988 21.0554 1.44429 21.3598 1.19442 21.446 0.944747 21.5325 0.740433 21.7063 0.740433 21.8324 0.740433 21.9583 0.565132 22.0614 0.351215 22.0614-0.136686 22.0614-0.141794 22.1131 0.497708 20.6024 1.24059 18.8476 1.38545 18.497 2.04007 16.8719 2.35635 16.0871 2.8418 14.9194 3.11905 14.2773 3.3961 13.6349 3.72178 12.8761 3.84232 12.5907 3.96307 12.3052 4.28916 11.5462 4.56682 10.904 4.84469 10.2619 5.50932 8.67089 6.0436 7.369L7.0147 5.0012 8.87232 4.86962C9.8941 4.7975 10.9347 4.65346 11.1841 4.54987 11.8259 4.28365 11.7732 4.93337 11.0203 6.57381 10.6803 7.31424 10.0381 8.70848 9.59314 9.67223 8.71745 11.5689 8.57648 12.171 9.1083 11.7464 9.28667 11.604 11.301 10.5226 13.5844 9.34349 15.8676 8.16439 19.0498 6.51517 20.6557 5.67871 22.2616 4.84204 23.6297 4.15759 23.6957 4.15759 23.8309 4.15759 25.5991 6.86311 28.6472 11.7346 29.7818 13.5473 30.8181 14.9999 30.9507 14.9627 31.1756 14.8994 31.6 13.4228 32.5633 9.34717 33.2978 6.24037 33.3916 5.85585 34.0752 3.13969 34.5298 1.33376 34.764 0.421296 34.9889 0.118094Z" fill="#D68D87" fill-rule="evenodd" transform="matrix(0.967232 0.258794 -0.25847 0.966019 63.9136 174.599)"/><path d="M0-10C2.54258e-15-4.47715-4.47067 0-9.98553 0-15.5004 2.54627e-15-19.9711-4.47715-19.9711-10-19.9711-15.5228-15.5004-20-9.98553-20-4.47067-20 3.81387e-15-15.5228 0-10Z" fill="#7C7C7B" fill-rule="evenodd" transform="matrix(1.00145 8.75495e-08 8.74228e-08 -1 272 82)"/><path d="M-46.6852 0C-42.7485-7.74901-35.4934-7.67304-32.7427-5.35593-23.7968-13.4215-23.2921-17.296-22.0808-22.0568-19.3428-24.6778-13.7027-25.3109-9.51369-25.2856-6.35928-25.1336-4.18905-25.2223-2.51091-26.1592-1.1482-26.767 0-29.5399-2.51091-30.996-7.5201-32.0216-15.5701-31.8697-22.901-29.1854-24.6675-28.4257-26.7494-27.8053-28.5032-24.5512L-29.2477-20.4361C-29.9416-18.4102-30.9132-19.8663-30.9132-19.8663-32.8437-33.731-30.5977-51.2169-28.0616-58.8393L-20.1756-79.7946C-19.8223-85.2771-25.4119-90-31.4305-81.8584-36.7425-70.6654-40.9442-57.5351-42.6854-43.316L-47.6315-44.1896C-49.0069-62.2833-47.0511-72.1848-46.9502-85.6063-48.6788-89.7087-55.5806-89.7341-57.3471-84.0236-57.3471-84.0236-62.0787-68.7535-57.1957-36.0987L-52.0098-7.85031C-60.451-4.59623-72.3621-10.6739-82.5319-12.092-84.2226-12.5732-85.8755-9.95216-84.1469-7.54642-76.4754-6.20427-74.4187-1.21553-46.6852 0Z" fill="#7C7C7B" fill-rule="evenodd" transform="matrix(1.00145 8.75495e-08 8.74228e-08 -1 299 97)"/><path d="M12.8638 101.87C11.55 101.203 10.5972 100.044 10.1785 98.5955 9.90415 97.6537 9.88972 96.9437 10.1207 94.5386 10.2795 92.9304 10.5683 89.2792 10.756 86.425 10.9581 83.5707 11.1747 80.6875 11.2324 80.021 11.5645 76.6741 12.0698 70.6033 12.1997 68.6763 12.2863 67.4883 12.3874 66.2278 12.4452 65.8945 12.5029 65.5758 12.604 64.4312 12.6906 63.359 12.7628 62.3013 12.936 60.2874 13.0804 58.8965 13.2104 57.5056 13.3836 51.4493 13.4414 45.4365 13.5569 35.2799 13.5424 34.512 13.167 34.512 12.936 34.512 12.4163 34.8018 11.9976 35.1495 11.5789 35.4973 10.5972 36.1058 9.80309 36.4825 7.00221 37.801 4.47564 37.2504 2.54101 34.9032 0.93844 32.9473 0.0866252 28.8759 0.0288751 22.8486 0 19.6177 0.0721877 18.7918 0.404251 18.0819 0.721877 11.7648 6.93002 14.6915 6.54021 19.1685L6.55464 21.8344C6.55464 24.9785 7.10327 29.1222 7.56527 29.5859 7.83958 29.8612 8.33046 29.499 10.7704 27.2242 15.1017 23.1819 14.2932 23.3992 24.7171 23.3992 30.2033 23.3992 33.7261 23.5006 34.3469 23.66 35.4875 23.9788 36.628 24.993 36.6136 25.6739 36.6136 25.9492 35.9062 26.9924 35.0543 27.9921 34.1881 28.9918 33.4951 30.035 33.4951 30.3248 33.4951 30.6291 33.7838 31.0203 34.1737 31.2811 34.8522 31.7447 37.8264 34.1643 42.3164 37.9459 43.688 39.0905 44.9729 40.1336 45.1751 40.2495 45.7814 40.5828 45.3628 41.1189 43.8757 41.9447 41.3636 43.3212 39.7177 42.814 38.1873 40.1916 37.8552 39.641 37.3355 38.9456 37.0179 38.6413L36.4404 38.0907 36.2815 40.5828C35.9495 45.7697 36.3104 54.0573 37.3499 64.576 37.552 66.6624 37.7686 69.4877 38.4327 79.0647 38.5049 80.1224 38.7359 82.7304 38.938 84.8602 39.1257 86.9755 39.4 90.1341 39.5155 91.8582 39.6455 93.5824 39.8187 95.5528 39.8909 96.2193 40.3096 99.769 37.6242 102.667 34.2747 102.261 33.5528 102.189 32.6722 101.957 32.2968 101.754 31.7048 101.45 30.29 99.9284 29.7991 99.0736 29.7125 98.9142 29.4815 96.5815 29.2793 93.8722 29.0772 91.1773 28.8173 87.7724 28.6874 86.3091 28.3986 83.0056 26.825 64.011 26.6373 61.5479 26.4207 58.853 26.4496 58.8965 24.9625 58.8965 23.9374 58.8965 23.6343 58.9834 23.5476 59.3167 23.2733 60.2439 22.9124 64.3008 21.9451 77.2536 21.4253 84.0054 20.9056 90.2355 20.4002 95.5528 20.1115 98.552 19.9816 99.146 19.4474 99.9574 18.0036 102.145 15.0728 103 12.8638 101.87ZM47.1097 39.1629C48.9144 36.7578 53.7654 30.8899 53.9531 30.8899 54.4295 30.8899 54.9204 32.02 54.9204 33.1211 54.9204 34.1643 54.8193 34.3816 53.8665 35.3234 53.3034 35.9029 52.2928 36.6853 51.6431 37.062 50.9934 37.4387 49.6651 38.2646 48.6834 38.9021 47.7161 39.5396 46.8065 40.0612 46.6766 40.0612 46.5466 40.0612 46.7343 39.6555 47.1097 39.1629ZM22.5514 20.6609C20.6168 20.0234 19.1009 19.0526 17.8881 17.6907 16.1267 15.7057 15.5781 14.1844 15.5781 11.3157 15.5781 9.2148 15.6359 8.88156 16.3433 7.44718 19.4185 1.18807 27.3591 0 31.9503 5.1145 33.8849 7.27332 34.6934 10.0986 34.1881 13.0108 33.7983 15.2131 33.2785 16.3287 31.8637 17.8645 30.16 19.7481 27.8211 20.8347 25.3234 20.9217 24.2984 20.9506 23.1001 20.8347 22.5514 20.6609Z" fill="#7C7C7B" fill-rule="evenodd" transform="matrix(1.00145 0 -0 1 295 82)"/><path d="M0.307894 6.57266C5.51478 5.21109 10.1252 3.47962 15.1763 0 19.4329 2.99572 24.6889 5.3993 30.1828 6.42412 31.8223 19.3565 28.3463 31.1719 15.8433 36.178 2.16851 31.9417-1.12342 18.3475 0.307894 6.57266Z" fill="#D68D87" fill-rule="evenodd" transform="matrix(0.967232 -0.258794 0.25847 0.966019 280.31 67.6829)"/><g clip-path="url(#clip1)"><g clip-path="url(#clip2)"><g clip-path="url(#clip3)"><path d="M19.3296 7.56381C19.0681 7.30232 18.7504 7.17163 18.377 7.17163L12.5501 7.17163 12.5501 1.34454C12.5501 0.971141 12.4193 0.653576 12.1579 0.392087 11.8964 0.130794 11.5791 0 11.2052 0L8.51611 0C8.14267 0 7.82515 0.130647 7.56366 0.392136 7.30217 0.653625 7.17148 0.97119 7.17148 1.34458L7.17148 7.17168 1.34458 7.17168C0.97119 7.17168 0.653625 7.30237 0.392136 7.56386 0.130647 7.82535 0 8.14262 0 8.51626L0 11.2057C0 11.5794 0.130597 11.8967 0.392087 12.158 0.653576 12.4196 0.971141 12.5502 1.34454 12.5502L7.17143 12.5502 7.17143 18.3773C7.17143 18.7507 7.30213 19.0686 7.56361 19.3299 7.8251 19.5912 8.14262 19.7218 8.51606 19.7218L11.2053 19.7218C11.579 19.7218 11.8964 19.5912 12.1579 19.3299 12.4195 19.0684 12.5501 18.7507 12.5501 18.3773L12.5501 12.5502 18.377 12.5502C18.7507 12.5502 19.0682 12.4196 19.3296 12.158 19.591 11.8967 19.7217 11.5794 19.7217 11.2057L19.7217 8.51626C19.7216 8.14262 19.5912 7.82515 19.3296 7.56381Z" fill="#6A4742" transform="matrix(0.967237 -0.258795 0.25847 0.966019 287.664 74.2081)"/></g></g></g><path d="M30.4839 90.9807 30.5484 98.1247 29.9709 99.0177C28.408 101.435 26.6664 102.285 24.0297 101.918 22.6487 101.726 21.0264 100.495 20.1384 98.966L19.52 97.9014 19.4885 75.2858C19.6862 66.0736 18.9607 56.884 19.3979 47.9017 19.3172 47.0892 19.3832 46.2827 19.3518 45.3643L20.5281 44.7608C22.2422 43.8819 22.8811 43.3946 24.5177 41.7175 25.9888 40.2103 27.1964 38.1655 27.7255 36.2856 28.3699 33.9972 28.453 33.3895 28.453 30.9761 28.453 28.9404 28.3653 28.1934 28.0371 27.4301 27.2786 25.6653 25.9048 24.7462 24.0416 24.7574 22.3313 24.7673 21.21 25.4461 20.1704 27.1003 19.8438 27.6198 19.7784 28.1364 19.8171 29.8908 19.854 31.5708 19.7612 32.3709 19.3947 33.5326 18.9736 34.8669 18.0489 36.2103 17.7557 35.9136 17.6943 35.8511 17.4455 34.8617 17.2034 33.7145 16.2252 29.0821 16.9294 25.6014 19.2633 23.532 22.8413 20.3589 29.3767 22.7381 32.0462 28.1856 32.7584 29.6391 34.3037 34.2711 34.562 35.7273 34.6165 36.0343 34.8075 36.9142 34.9866 37.6825 35.4474 39.6599 35.943 44.3937 35.9481 46.8646 35.7324 51.625 35.9893 58.0443 31.7727 61.1774L30.6685 61.9588 30.6638 64.6804C31.3723 74.1371 30.4245 83.5013 30.4839 90.9807ZM8.05073 45.6386C2.40622 44.8018 1.55224 44.5269 0.639256 43.2513 0.126417 42.5346 0 42.1254 0 41.181 0.247302 37.3677 3.87877 37.5608 5.82624 37.9374 9.4614 38.657 13.735 38.6584 15.94 37.9374 17.1407 37.5465 17.7568 37.1846 18.5427 36.4073 20.036 34.931 20.5125 33.4756 20.5125 30.3908 20.5125 28.2546 20.5697 27.8915 21.0088 27.2385 21.8613 25.971 22.5948 25.5664 24.0416 25.5664 25.4809 25.5664 26.2222 25.9712 27.0577 27.2134 28.2455 28.9788 27.8773 34.42 26.3445 37.7567 25.5862 39.4071 25.2408 39.8894 23.7299 41.4052 21.7376 43.4043 19.9159 44.4076 16.7631 45.2419 15.5728 45.5569 9.40137 45.8352 8.05073 45.6351ZM19.5918 19.5555C16.9817 18.4576 15.2577 16.8243 14.0831 14.3359 12.2721 10.4998 13.0742 5.94515 16.0898 2.93981 21.2532-2.20569 29.7598-0.338858 32.4424 6.52851 33.8273 10.0739 32.8555 14.4828 30.0733 17.2766 29.0062 18.3968 27.6445 19.1415 26.3349 19.6171 24.3968 20.3134 21.3274 20.2852 19.5918 19.5555Z" fill="#7C7C7B" fill-rule="evenodd" transform="matrix(1.00145 0 -0 1 344 81)"/><path d="M44.3576 59.6903C1.769 59.6903 1.769 59.6903 1.769 59.6903 0.796048 59.6903 0 58.8944 0 57.9217 0 1.7686 0 1.7686 0 1.7686 0 0.795871 0.796048 0 1.769 0 44.3576 0 44.3576 0 44.3576 0 45.3748 0 46.1708 0.795871 46.1708 1.7686 46.1708 57.9217 46.1708 57.9217 46.1708 57.9217 46.1708 58.8944 45.3748 59.6903 44.3576 59.6903" fill="#7C7C7B" fill-rule="evenodd" transform="matrix(0.993354 -0.126708 0.12653 0.991963 248.776 116.929)"/><rect x="0" y="0" width="37.67" height="52.2751" fill="#F3EEDD" transform="matrix(0.993354 -0.126708 0.12653 0.991963 253.469 120.151)"/><rect x="0" y="0" width="41.437" height="56.9615" fill="#FFFFFF" transform="matrix(0.993354 -0.126708 0.12653 0.991963 251.27 117.821)"/><path d="M14.0357 0.655443C0.281519 0.655443 0.281519 0.655443 0.281519 0.655443 0.120651 0.655443 0 0.524355 0 0.305874 0 0.131089 0.120651 0 0.281519 0 14.0357 0 14.0357 0 14.0357 0 14.2368 0 14.3575 0.131089 14.3575 0.305874 14.3575 0.524355 14.2368 0.655443 14.0357 0.655443" fill="#7C7C7B" fill-rule="evenodd" transform="matrix(0.993354 -0.126708 0.12653 0.991963 270.534 152.264)"/><path d="M23.0487 0.696435C0.281572 0.696435 0.281572 0.696435 0.281572 0.696435 0.120674 0.696435 0 0.522326 0 0.348217 0 0.174109 0.120674 0 0.281572 0 23.0487 0 23.0487 0 23.0487 0 23.2498 0 23.3705 0.174109 23.3705 0.348217 23.3705 0.522326 23.2498 0.696435 23.0487 0.696435" fill="#7C7C7B" fill-rule="evenodd" transform="matrix(0.993354 -0.126708 0.12653 0.991963 270.916 154.613)"/><path d="M7.12669 0.716878C0.281847 0.716878 0.281847 0.716878 0.281847 0.716878 0.120791 0.716878 0 0.537659 0 0.358439 0 0.179219 0.120791 0 0.281847 0 7.12669 0 7.12669 0 7.12669 0 7.32801 0 7.4488 0.179219 7.4488 0.358439 7.4488 0.537659 7.32801 0.716878 7.12669 0.716878" fill="#7C7C7B" fill-rule="evenodd" transform="matrix(0.993354 -0.126708 0.12653 0.991963 271.084 157.041)"/><path d="M7.43413 7.26209C0.695278 7.26209 0.695278 7.26209 0.695278 7.26209 0.320898 7.26209 0 6.9417 0 6.56792 0 0.69417 0 0.69417 0 0.69417 0 0.320386 0.320898 0 0.695278 0 7.43413 0 7.43413 0 7.43413 0 7.80851 0 8.12941 0.320386 8.12941 0.69417 8.12941 6.56792 8.12941 6.56792 8.12941 6.56792 8.12941 6.9417 7.80851 7.26209 7.43413 7.26209" fill="#D4D6D9" fill-rule="evenodd" transform="matrix(0.993354 -0.126708 0.12653 0.991963 259.013 152.03)"/><path d="M7.23813 0.0914476 3.18764 5.88877 1.08575 3.76385 0.0914476 4.74694 3.37283 8.06357 8.38351 0.891883Z" fill="#695934" fill-rule="evenodd" transform="matrix(0.993354 -0.126708 0.12653 0.991963 260.392 149.681)"/><path d="M7.43413 7.26209C0.695278 7.26209 0.695278 7.26209 0.695278 7.26209 0.320898 7.26209 0 6.9417 0 6.56792 0 0.69417 0 0.69417 0 0.69417 0 0.320386 0.320898 0 0.695278 0 7.43413 0 7.43413 0 7.43413 0 7.80851 0 8.12941 0.320386 8.12941 0.69417 8.12941 6.56792 8.12941 6.56792 8.12941 6.56792 8.12941 6.9417 7.80851 7.26209 7.43413 7.26209" fill="#D4D6D9" fill-rule="evenodd" transform="matrix(0.993354 -0.126708 0.12653 0.991963 260.508 163)"/><path d="M7.23813 0.0914476 3.18764 5.88877 1.08575 3.76385 0.0914476 4.74694 3.37283 8.06357 8.38351 0.891883Z" fill="#695934" fill-rule="evenodd" transform="matrix(0.993354 -0.126708 0.12653 0.991963 261.887 160.651)"/><path d="M4.07373 4.29003C3.32098 4.29003 3.32098 4.29003 3.32098 4.29003 2.56822 4.29003 1.99259 3.67085 1.99259 2.91899 1.99259 2.16713 2.56822 1.59217 3.32098 1.59217 4.07373 1.59217 4.07373 1.59217 4.07373 1.59217 4.82648 1.59217 5.40212 2.16713 5.40212 2.91899 5.40212 3.67085 4.82648 4.29003 4.07373 4.29003M4.47225 0C2.92246 0 2.92246 0 2.92246 0 1.32839 0 0 1.32681 0 2.91899 0 4.55539 1.32839 5.83797 2.92246 5.83797 4.47225 5.83797 4.47225 5.83797 4.47225 5.83797 6.06631 5.83797 7.3947 4.55539 7.3947 2.91899 7.3947 1.32681 6.06631 0 4.47225 0" fill="#6A4742" fill-rule="evenodd" transform="matrix(0.993354 -0.126708 0.12653 0.991963 266.07 109.861)"/><path d="M5.30947 0C3.4954 0 3.4954 0 3.4954 0 1.54859 0 0 1.59544 0 3.50111 0 5.4511 1.54859 7.04654 3.4954 7.04654 5.30947 7.04654 5.30947 7.04654 5.30947 7.04654 7.25627 7.04654 8.84911 5.4511 8.84911 3.50111 8.84911 1.59544 7.25627 0 5.30947 0M4.82277 5.14087C3.9821 5.14087 3.9821 5.14087 3.9821 5.14087 3.05294 5.14087 2.34502 4.43179 2.34502 3.50111 2.34502 2.61475 3.05294 1.86135 3.9821 1.86135 4.82277 1.86135 4.82277 1.86135 4.82277 1.86135 5.75192 1.86135 6.45985 2.61475 6.45985 3.50111 6.45985 4.43179 5.75192 5.14087 4.82277 5.14087" fill="#6A4742" fill-rule="evenodd" transform="matrix(0.993354 -0.126708 0.12653 0.991963 265.305 109.381)"/><path d="M25.5641 6.61639C0 6.61639 0 6.61639 0 6.61639 0 1.72026 0 1.72026 0 1.72026 0 0.749858 0.751884 0 1.72491 0 23.8392 0 23.8392 0 23.8392 0 24.768 0 25.5641 0.749858 25.5641 1.72026L25.5641 6.61639Z" fill="#6A4742" fill-rule="evenodd" transform="matrix(0.993354 -0.126708 0.12653 0.991963 257.476 114.138)"/><path d="M14.0357 0.655443C0.281519 0.655443 0.281519 0.655443 0.281519 0.655443 0.120651 0.655443 0 0.524355 0 0.305874 0 0.131089 0.120651 0 0.281519 0 14.0357 0 14.0357 0 14.0357 0 14.2368 0 14.3575 0.131089 14.3575 0.305874 14.3575 0.524355 14.2368 0.655443 14.0357 0.655443" fill="#7C7C7B" fill-rule="evenodd" transform="matrix(0.993354 -0.126708 0.12653 0.991963 272.305 162.435)"/><path d="M23.0487 0.696435C0.281572 0.696435 0.281572 0.696435 0.281572 0.696435 0.120674 0.696435 0 0.522326 0 0.348217 0 0.174109 0.120674 0 0.281572 0 23.0487 0 23.0487 0 23.0487 0 23.2498 0 23.3705 0.174109 23.3705 0.348217 23.3705 0.522326 23.2498 0.696435 23.0487 0.696435" fill="#7C7C7B" fill-rule="evenodd" transform="matrix(0.993354 -0.126708 0.12653 0.991963 272.688 164.785)"/><path d="M7.12669 0.716878C0.281847 0.716878 0.281847 0.716878 0.281847 0.716878 0.120791 0.716878 0 0.537659 0 0.358439 0 0.179219 0.120791 0 0.281847 0 7.12669 0 7.12669 0 7.12669 0 7.32801 0 7.4488 0.179219 7.4488 0.358439 7.4488 0.537659 7.32801 0.716878 7.12669 0.716878" fill="#7C7C7B" fill-rule="evenodd" transform="matrix(0.993354 -0.126708 0.12653 0.991963 272.855 167.213)"/><path d="M8.21729 10.5581C8.11649 10.5438 8.01248 10.5365 7.9051 10.5365L7.46544 10.5365 7.46544 12.2602 7.92874 12.2602C8.09353 12.2602 8.23164 12.2379 8.3429 12.1935 8.45417 12.1489 8.54517 12.0868 8.61575 12.0069 8.68649 11.9271 8.74002 11.8317 8.77682 11.7204 8.81346 11.6091 8.83169 11.4881 8.83169 11.3572 8.83169 11.1791 8.80029 11.0326 8.73748 10.9174 8.67467 10.8023 8.59751 10.7172 8.50583 10.6623 8.41415 10.6072 8.31808 10.5726 8.21729 10.5581ZM13.4365 10.4973C13.1825 10.4973 12.9705 10.5451 12.8005 10.6407 12.6303 10.7362 12.4928 10.8637 12.3881 11.0234 12.2835 11.1832 12.2095 11.3696 12.1663 11.583 12.1231 11.7962 12.1015 12.022 12.1015 12.2602 12.1015 12.5376 12.1224 12.787 12.1644 13.0082 12.2063 13.2293 12.2769 13.4184 12.3763 13.5755 12.4758 13.7325 12.6093 13.8524 12.7768 13.9348 12.9445 14.0172 13.155 14.0585 13.409 14.0585 13.6629 14.0585 13.875 14.0114 14.045 13.917 14.2152 13.8228 14.3526 13.6947 14.4573 13.5324 14.562 13.37 14.6359 13.1809 14.6791 12.9649 14.7224 12.749 14.744 12.5194 14.744 12.2759 14.744 12.009 14.723 11.7662 14.6812 11.5475 14.6391 11.329 14.5679 11.142 14.4671 10.9861 14.3663 10.8305 14.2322 10.7101 14.0647 10.625 13.8971 10.5399 13.6877 10.4973 13.4365 10.4973ZM8.32332 9.75325C8.43188 9.76237 8.56206 9.78212 8.71401 9.81218 8.8658 9.84223 9.01945 9.89795 9.17529 9.97899 9.33096 10.0602 9.46383 10.1629 9.57375 10.2873 9.68366 10.4116 9.76741 10.5569 9.82498 10.7231 9.88273 10.8892 9.91143 11.0758 9.91143 11.2826 9.91143 11.568 9.86702 11.8205 9.77788 12.0404 9.6889 12.2602 9.5594 12.4454 9.38921 12.5959 9.21918 12.7465 9.01033 12.8609 8.76298 12.9394 8.51563 13.018 8.22438 13.0573 7.8894 13.0573L7.46544 13.0573 7.46544 14.6788C7.46544 14.705 7.45683 14.7285 7.43995 14.7494 7.42289 14.7704 7.3947 14.7874 7.35536 14.8006 7.31619 14.8136 7.26384 14.824 7.19834 14.832 7.13299 14.8397 7.04925 14.8438 6.9471 14.8436 6.84765 14.8438 6.76458 14.8397 6.69772 14.832 6.63103 14.824 6.57802 14.8136 6.53885 14.8006 6.49951 14.7874 6.47198 14.7704 6.45628 14.7494 6.44058 14.7285 6.43281 14.705 6.43281 14.6788L6.43281 10.1087C6.43281 9.98558 6.46489 9.89339 6.52905 9.83176 6.59304 9.7703 6.67746 9.73958 6.78214 9.73958L7.97973 9.73958C8.10011 9.73958 8.21458 9.74413 8.32332 9.75325ZM13.4718 9.64925C13.8566 9.64925 14.1963 9.70024 14.4907 9.80238 14.7852 9.90436 15.0312 10.0616 15.2289 10.2734 15.4264 10.4855 15.5757 10.7531 15.6765 11.0765 15.7771 11.3998 15.8276 11.7812 15.8276 12.221 15.8276 12.6425 15.7753 13.0193 15.6706 13.3518 15.5659 13.6842 15.41 13.9662 15.2032 14.1978 14.9966 14.4295 14.7406 14.6062 14.4357 14.728 14.1307 14.8495 13.778 14.9105 13.3776 14.9105 12.9823 14.9105 12.6375 14.8588 12.3431 14.7553 12.0484 14.652 11.8031 14.4943 11.6068 14.2822 11.4106 14.0702 11.2633 13.8007 11.1651 13.4735 11.067 13.1463 11.0178 12.7588 11.0178 12.3112 11.0178 11.9002 11.0702 11.5306 11.1749 11.2021 11.2795 10.8735 11.4354 10.5942 11.6422 10.3638 11.8489 10.1335 12.1048 9.95687 12.4098 9.83379 12.7147 9.7107 13.0687 9.64925 13.4718 9.64925ZM16.8516 9.72776C16.9169 9.73569 16.9693 9.74616 17.0086 9.75916 17.0478 9.77233 17.076 9.78921 17.093 9.81015 17.1099 9.83109 17.1185 9.85472 17.1185 9.88089L17.1185 13.9682 18.7164 13.9682C18.7428 13.9682 18.7656 13.9753 18.7853 13.9898 18.8049 14.0042 18.8211 14.0276 18.8343 14.0604 18.8475 14.0931 18.8573 14.1364 18.8638 14.19 18.8703 14.2437 18.8736 14.3098 18.8736 14.3883 18.8736 14.4668 18.8703 14.533 18.8638 14.5865 18.8573 14.6402 18.8475 14.6848 18.8343 14.72 18.8211 14.7553 18.8049 14.7808 18.7853 14.7965 18.7656 14.8124 18.7428 14.8202 18.7164 14.8202L16.3883 14.8202C16.3019 14.8202 16.2293 14.7947 16.1703 14.7437 16.1114 14.6925 16.082 14.6094 16.082 14.4943L16.082 9.88089C16.082 9.85472 16.0905 9.83109 16.1075 9.81015 16.1246 9.78921 16.1526 9.77233 16.1919 9.75916 16.2311 9.74616 16.2841 9.73569 16.351 9.72776 16.4177 9.71999 16.5008 9.71594 16.6002 9.71594 16.7024 9.71594 16.7861 9.71999 16.8516 9.72776ZM20.068 9.72776C20.1334 9.73569 20.1857 9.74616 20.225 9.75916 20.2642 9.77233 20.2924 9.78921 20.3095 9.81015 20.3265 9.83109 20.3349 9.85472 20.3349 9.88089L20.3349 14.6788C20.3349 14.705 20.3263 14.7285 20.3095 14.7494 20.2924 14.7704 20.2642 14.7874 20.225 14.8006 20.1857 14.8136 20.1334 14.824 20.068 14.832 20.0025 14.8397 19.9188 14.8436 19.8166 14.8436 19.7172 14.8438 19.6341 14.8397 19.5674 14.832 19.5005 14.824 19.4475 14.8136 19.4084 14.8006 19.369 14.7874 19.341 14.7704 19.3239 14.7494 19.3069 14.7285 19.2984 14.705 19.2984 14.6788L19.2984 9.88089C19.2984 9.85472 19.3069 9.83109 19.3239 9.81015 19.341 9.78921 19.3697 9.77233 19.4102 9.75916 19.4509 9.74616 19.5039 9.73569 19.5693 9.72776 19.6348 9.71982 19.7172 9.71594 19.8166 9.71594 19.9188 9.71594 20.0025 9.71999 20.068 9.72776ZM23.4273 9.69247C23.5581 9.71594 23.6792 9.74667 23.7904 9.78466 23.9017 9.82265 24.0018 9.86654 24.0908 9.91618 24.1798 9.96599 24.2419 10.0085 24.2774 10.0438 24.3127 10.0791 24.3368 10.1087 24.35 10.1321 24.363 10.1558 24.3734 10.1858 24.3814 10.2225 24.3891 10.2591 24.3951 10.3023 24.3991 10.352 24.403 10.4018 24.4048 10.4632 24.4048 10.5365 24.4048 10.6152 24.4023 10.6819 24.3971 10.7367 24.3918 10.7918 24.3827 10.8364 24.3696 10.8703 24.3566 10.9044 24.3409 10.9292 24.3225 10.9449 24.3042 10.9606 24.2833 10.9684 24.2596 10.9684 24.2205 10.9684 24.1707 10.9456 24.1104 10.8997 24.0503 10.8539 23.9724 10.8029 23.8769 10.7467 23.7813 10.6903 23.6673 10.6393 23.5351 10.5936 23.4031 10.5476 23.2454 10.5249 23.0621 10.5249 22.8606 10.5249 22.6806 10.5661 22.5223 10.6484 22.3639 10.731 22.2292 10.8487 22.1179 11.0018 22.0066 11.155 21.9222 11.3402 21.8646 11.5575 21.8071 11.7746 21.7782 12.0194 21.7782 12.2916 21.7782 12.5901 21.8089 12.8484 21.8706 13.0671 21.932 13.2856 22.0196 13.4656 22.1336 13.6069 22.2474 13.7484 22.3848 13.8537 22.5457 13.9229 22.7068 13.9923 22.8882 14.0271 23.0896 14.0271 23.2728 14.0271 23.4311 14.0055 23.5647 13.9623 23.6982 13.9191 23.8127 13.8713 23.9083 13.8189 24.0038 13.7666 24.0824 13.7195 24.1438 13.6776 24.2053 13.6357 24.2531 13.6148 24.2872 13.6148 24.3133 13.6148 24.3343 13.62 24.35 13.6305 24.3657 13.641 24.3787 13.6619 24.3891 13.6933 24.3998 13.7247 24.4075 13.7686 24.4128 13.8248 24.418 13.8811 24.4207 13.9564 24.4205 14.0506 24.4205 14.1161 24.4187 14.1716 24.4146 14.2174 24.4108 14.2633 24.4048 14.3025 24.3971 14.3353 24.3891 14.368 24.3787 14.3962 24.3657 14.4197 24.3525 14.4433 24.3316 14.47 24.3029 14.5002 24.274 14.5303 24.2184 14.5689 24.1359 14.616 24.0535 14.6631 23.9527 14.7082 23.8337 14.7514 23.7145 14.7947 23.5784 14.8306 23.4252 14.8595 23.2723 14.8882 23.1066 14.9026 22.9287 14.9026 22.5805 14.9026 22.2665 14.849 21.9864 14.7416 21.7063 14.6343 21.468 14.474 21.2717 14.2606 21.0755 14.0474 20.9249 13.7809 20.8202 13.4617 20.7155 13.1424 20.6632 12.7706 20.6632 12.3466 20.6632 11.9148 20.7207 11.5313 20.8359 11.1962 20.951 10.8612 21.1121 10.5797 21.319 10.3521 21.5256 10.1244 21.7736 9.95164 22.0629 9.83379 22.3521 9.71594 22.6709 9.65701 23.019 9.65701 23.1603 9.65701 23.2964 9.66883 23.4273 9.69247ZM29.0783 9.72573C29.1607 9.73232 29.2171 9.74937 29.2472 9.77689 29.2772 9.80441 29.2845 9.84561 29.2688 9.90048 29.2531 9.95552 29.2217 10.0302 29.1746 10.1244L27.7847 12.8923 27.7847 14.6788C27.7847 14.705 27.7761 14.7285 27.7592 14.7494 27.7421 14.7704 27.7139 14.7874 27.6748 14.8006 27.6354 14.8136 27.5824 14.824 27.5157 14.832 27.449 14.8397 27.3658 14.8438 27.2663 14.8438 27.1644 14.8438 27.0805 14.8397 27.0151 14.832 26.9496 14.824 26.8966 14.8136 26.8561 14.8006 26.8155 14.7874 26.7873 14.7704 26.7716 14.7494 26.7559 14.7285 26.7482 14.705 26.7482 14.6788L26.7482 12.8923 25.3583 10.1244C25.3085 10.0274 25.2764 9.95215 25.262 9.89862 25.2477 9.84493 25.2555 9.80441 25.2855 9.77689 25.3157 9.74937 25.3713 9.73232 25.4525 9.72573 25.5335 9.71931 25.6462 9.71594 25.7902 9.71594 25.9106 9.71594 26.0066 9.71864 26.0787 9.72387 26.1507 9.72911 26.2076 9.7389 26.2494 9.75325 26.2913 9.7676 26.322 9.78668 26.3418 9.81015 26.3614 9.83379 26.3804 9.86384 26.3987 9.90048L26.9641 11.1491C27.019 11.2694 27.0734 11.3964 27.1271 11.53 27.1806 11.6633 27.2349 11.8035 27.29 11.95L27.2978 11.95C27.3476 11.8087 27.3986 11.6713 27.4509 11.5377 27.5032 11.4043 27.5544 11.2774 27.604 11.157L28.1615 9.91618C28.1747 9.87431 28.1911 9.84105 28.2107 9.81606 28.2303 9.79124 28.2598 9.77098 28.299 9.75528 28.3383 9.73958 28.3918 9.72911 28.46 9.72387 28.5281 9.71864 28.6183 9.71594 28.7309 9.71594 28.8801 9.71594 28.9959 9.71931 29.0783 9.72573ZM0.769574 0.0785109C0.834915 0.0864464 0.887255 0.0969146 0.926595 0.109915 0.965766 0.123085 0.993962 0.139969 1.01102 0.160905 1.02807 0.181841 1.03651 0.205479 1.03651 0.231649L1.03651 5.0296C1.03651 5.05577 1.02807 5.07923 1.01102 5.10017 0.993962 5.12111 0.965766 5.13816 0.926595 5.15133 0.887255 5.16433 0.834915 5.1748 0.769574 5.18273 0.704064 5.1905 0.620319 5.19455 0.518171 5.19438 0.418724 5.19455 0.335654 5.1905 0.268963 5.18273 0.202102 5.1748 0.149086 5.16433 0.109915 5.15133 0.0705752 5.13816 0.0425477 5.12111 0.0254949 5.10017 0.00844201 5.07923 0 5.05577 0 5.0296L0 0.231649C0 0.205479 0.00844201 0.181841 0.0254949 0.160905 0.0425477 0.139969 0.0712506 0.123085 0.111941 0.109915 0.152463 0.0969146 0.205479 0.0864464 0.27082 0.0785109 0.33633 0.0707443 0.418724 0.0666921 0.518171 0.0666921 0.620319 0.0666921 0.704064 0.0707443 0.769574 0.0785109ZM5.5697 0.0844203C5.62998 0.0910051 5.67641 0.102149 5.70916 0.117851 5.74192 0.133553 5.76471 0.151788 5.77788 0.172724 5.79088 0.19366 5.79747 0.217298 5.79747 0.243468L5.79747 4.80976C5.79747 4.86987 5.787 4.92356 5.76606 4.97067 5.74513 5.01778 5.71693 5.05712 5.68164 5.08852 5.64636 5.11993 5.60448 5.14272 5.55603 5.15724 5.50757 5.17159 5.45844 5.17885 5.4088 5.17868L4.96914 5.17868C4.87746 5.17885 4.79827 5.16956 4.73158 5.15133 4.66472 5.13293 4.60326 5.09966 4.54704 5.05121 4.49064 5.00275 4.43645 4.93724 4.38411 4.85485 4.3316 4.77245 4.27284 4.66574 4.20733 4.53489L2.94305 2.15947C2.86978 2.01815 2.79515 1.86569 2.71934 1.70208 2.64336 1.53848 2.57532 1.37943 2.51504 1.22494L2.50728 1.22494C2.51775 1.41353 2.52568 1.60129 2.53075 1.78836 2.53598 1.97561 2.53868 2.16859 2.53868 2.36748L2.53868 5.02571C2.53868 5.05188 2.53159 5.07535 2.51707 5.09629 2.50272 5.11722 2.4779 5.13495 2.44244 5.1493 2.40716 5.16365 2.35937 5.1748 2.29927 5.18273 2.23899 5.1905 2.16183 5.19455 2.06745 5.19455 1.97594 5.19455 1.89996 5.1905 1.83985 5.18273 1.77958 5.1748 1.73247 5.16365 1.69853 5.1493 1.66443 5.13495 1.64079 5.11722 1.62779 5.09629 1.61479 5.07535 1.6082 5.05188 1.6082 5.02571L1.6082 0.459416C1.6082 0.336331 1.64417 0.244144 1.71609 0.182517 1.78819 0.121059 1.87649 0.0903298 1.98117 0.0903298L2.5348 0.0903298C2.63425 0.0903298 2.71799 0.0987718 2.78603 0.115825 2.85408 0.132878 2.91503 0.160905 2.96855 0.200245 3.02224 0.239416 3.07272 0.293783 3.11983 0.363176 3.16694 0.43257 3.21522 0.518341 3.26503 0.620321L4.25444 2.47757C4.31201 2.59002 4.36908 2.70061 4.4253 2.80934 4.48153 2.9179 4.53589 3.02647 4.58823 3.1352 4.64057 3.24377 4.69156 3.35047 4.74137 3.45516 4.79101 3.55984 4.83947 3.66452 4.88657 3.7692L4.89046 3.7692C4.88269 3.58601 4.87678 3.39488 4.8729 3.19599 4.86901 2.99709 4.86699 2.80731 4.86699 2.62665L4.86699 0.243468C4.86699 0.217298 4.87492 0.19366 4.89046 0.172724 4.90616 0.151788 4.93233 0.133553 4.96914 0.117851 5.00561 0.102149 5.05406 0.0910051 5.11434 0.0844203 5.17445 0.0778356 5.25178 0.0746276 5.34599 0.0746276 5.43497 0.0746276 5.50959 0.0778356 5.5697 0.0844203ZM16.2465 0.89131C16.1798 0.883375 16.0874 0.879491 15.9698 0.879491L15.5065 0.879491 15.5065 2.32038 16.0326 2.32038C16.1791 2.32038 16.3073 2.30282 16.4173 2.26736 16.5273 2.23207 16.6188 2.18243 16.6921 2.11828 16.7655 2.05412 16.8204 1.97746 16.857 1.88848 16.8936 1.7995 16.9121 1.70006 16.9121 1.59014 16.9121 1.42265 16.8741 1.28133 16.7981 1.16618 16.7223 1.05086 16.5978 0.969821 16.4251 0.922714 16.3728 0.909545 16.3132 0.899077 16.2465 0.89131ZM8.27807 0.027521C8.39845 0.0457558 8.51107 0.0707443 8.61575 0.102149 8.72043 0.133553 8.81346 0.168841 8.8945 0.208012 8.97572 0.247352 9.02941 0.280107 9.05558 0.306277 9.08175 0.332447 9.09931 0.354734 9.10859 0.372969 9.11771 0.391373 9.12548 0.415517 9.13206 0.445571 9.13865 0.475793 9.14321 0.513613 9.14591 0.559538 9.14844 0.605294 9.14979 0.662193 9.14979 0.730236 9.14979 0.806214 9.14776 0.870374 9.14388 0.922714 9.14 0.975055 9.13341 1.01828 9.1243 1.05222 9.11518 1.08632 9.10201 1.11114 9.08496 1.12684 9.0679 1.14254 9.04511 1.15031 9.01624 1.15048 8.98753 1.15048 8.94161 1.13208 8.8788 1.09544 8.81599 1.0588 8.73883 1.01878 8.64715 0.97573 8.55564 0.932507 8.44961 0.893167 8.32923 0.85788 8.20884 0.822592 8.07664 0.804864 7.93262 0.804864 7.82 0.804864 7.72191 0.81854 7.63816 0.846061 7.55442 0.873582 7.48435 0.911571 7.42813 0.960028 7.37173 1.00832 7.32986 1.06657 7.30251 1.13478 7.27499 1.20282 7.26114 1.27475 7.26114 1.35056 7.26131 1.46317 7.29204 1.56076 7.3535 1.64316 7.41496 1.72555 7.49752 1.79883 7.60085 1.86299 7.70418 1.92715 7.82136 1.98742 7.95221 2.04365 8.08306 2.09987 8.21661 2.15947 8.3527 2.22228 8.48878 2.28509 8.62233 2.35634 8.75318 2.4362 8.88404 2.51606 9.00054 2.61163 9.10268 2.72289 9.20466 2.83416 9.28723 2.96501 9.35003 3.11545 9.41284 3.26605 9.44425 3.44334 9.44425 3.64747 9.44425 3.91457 9.39444 4.14875 9.29499 4.35035 9.19555 4.55195 9.06081 4.72011 8.89062 4.85485 8.72043 4.98958 8.52154 5.09105 8.29377 5.1591 8.06617 5.22714 7.82271 5.26124 7.56354 5.26124 7.38811 5.26124 7.22518 5.24689 7.07474 5.21802 6.92431 5.18932 6.79143 5.15454 6.67628 5.11402 6.56096 5.07333 6.46489 5.03095 6.38756 4.98637 6.3104 4.9418 6.25486 4.90263 6.22075 4.86852 6.18664 4.83458 6.1625 4.78545 6.14815 4.72129 6.1338 4.6573 6.12654 4.56495 6.12654 4.44456 6.12654 4.36335 6.12907 4.29531 6.1343 4.24043 6.13954 4.18539 6.14815 4.14099 6.15997 4.10688 6.17162 4.07294 6.18732 4.04863 6.20707 4.03428 6.22666 4.01993 6.24962 4.01267 6.27579 4.01267 6.31243 4.01267 6.3641 4.03428 6.43079 4.0775 6.49765 4.12056 6.58325 4.16834 6.68793 4.22068 6.79261 4.27302 6.91772 4.3208 7.06293 4.36403 7.2083 4.40725 7.37629 4.42886 7.56742 4.42886 7.69304 4.42886 7.80565 4.41383 7.9051 4.38361 8.00455 4.35356 8.08897 4.31101 8.15836 4.25614 8.22775 4.20109 8.28077 4.13305 8.31741 4.05184 8.35405 3.9708 8.37245 3.88047 8.37228 3.78102 8.37228 3.66587 8.34088 3.5671 8.27807 3.48453 8.21526 3.40214 8.13354 3.32886 8.03274 3.2647 7.93195 3.20054 7.81747 3.14044 7.68915 3.08404 7.561 3.02782 7.4288 2.96822 7.29255 2.90541 7.15646 2.8426 7.02426 2.77135 6.89611 2.69149 6.76779 2.61163 6.65332 2.51606 6.55252 2.4048 6.45172 2.29353 6.37 2.16201 6.3072 2.01022 6.24439 1.85843 6.21281 1.67659 6.21281 1.46452 6.21281 1.22106 6.25806 1.00713 6.34839 0.822592 6.43872 0.638049 6.56029 0.48491 6.71359 0.363176 6.86656 0.241442 7.04722 0.150437 7.2554 0.0903298 7.46341 0.0300536 7.68392 0 7.91692 0 8.0373 0 8.15769 0.0091174 8.27807 0.027521ZM21.128 1.06015 21.1241 1.06015 20.4057 3.21962 21.8466 3.21962ZM13.5342 0.0785109C13.5984 0.0864464 13.6501 0.0969146 13.6894 0.109915 13.7286 0.123085 13.7561 0.139969 13.7718 0.160905 13.7875 0.181841 13.7953 0.205479 13.7953 0.231649L13.7953 3.27838C13.7953 3.58989 13.7495 3.86865 13.6578 4.11482 13.5663 4.36082 13.4314 4.56883 13.2535 4.73902 13.0755 4.90921 12.8557 5.03871 12.594 5.12769 12.3321 5.21667 12.031 5.26124 11.6908 5.26124 11.3716 5.26124 11.0849 5.22123 10.8309 5.14154 10.5772 5.06168 10.3624 4.94062 10.1871 4.77836 10.0117 4.61594 9.87749 4.41383 9.78463 4.17172 9.69177 3.9296 9.64534 3.64628 9.64534 3.3216L9.64534 0.231649C9.64534 0.205479 9.6531 0.181841 9.66881 0.160905 9.68451 0.139969 9.7127 0.123085 9.75323 0.109915 9.79375 0.0969146 9.84676 0.0864464 9.91227 0.0785109 9.97761 0.0707443 10.0614 0.0666921 10.1635 0.0666921 10.263 0.0666921 10.3453 0.0707443 10.4109 0.0785109 10.4764 0.0864464 10.5287 0.0969146 10.5679 0.109915 10.6072 0.123085 10.6352 0.139969 10.6523 0.160905 10.6694 0.181841 10.678 0.205479 10.6778 0.231649L10.6778 3.23127C10.6778 3.43287 10.7028 3.60762 10.7524 3.75552 10.8022 3.90343 10.8735 4.02567 10.9665 4.12258 11.0594 4.2195 11.1706 4.2921 11.3001 4.34056 11.4298 4.38884 11.5743 4.41316 11.7341 4.41316 11.8963 4.41316 12.0415 4.38834 12.1698 4.33853 12.2982 4.28872 12.4067 4.21612 12.4957 4.12056 12.5847 4.02516 12.6534 3.90731 12.7019 3.76734 12.7503 3.6272 12.7745 3.46816 12.7745 3.2902L12.7745 0.231649C12.7745 0.205479 12.7824 0.181841 12.7981 0.160905 12.8138 0.139969 12.8413 0.123085 12.8805 0.109915 12.9198 0.0969146 12.9728 0.0864464 13.0395 0.0785109 13.1062 0.0707443 13.1893 0.0666921 13.2889 0.0666921 13.3884 0.0666921 13.4701 0.0707443 13.5342 0.0785109ZM16.6607 0.117851C16.8649 0.146554 17.0488 0.196362 17.2124 0.266937 17.376 0.337681 17.5146 0.429868 17.6286 0.543836 17.7424 0.657635 17.8294 0.792369 17.8896 0.948209 17.9499 1.10388 17.98 1.28251 17.98 1.48411 17.98 1.6543 17.9584 1.8093 17.9151 1.94943 17.8719 2.0894 17.8084 2.21435 17.7247 2.32443 17.6409 2.43435 17.5376 2.52991 17.4145 2.61095 17.2916 2.69216 17.1515 2.75751 16.9944 2.80731 17.0704 2.84395 17.1417 2.88836 17.2084 2.9407 17.2752 2.99321 17.338 3.05669 17.397 3.13115 17.4557 3.20578 17.5114 3.29087 17.5638 3.38644 17.6161 3.482 17.6671 3.58989 17.7169 3.71027L18.1449 4.7115C18.1841 4.81095 18.2103 4.88372 18.2234 4.92947 18.2364 4.97523 18.243 5.01119 18.243 5.03736 18.243 5.06623 18.2378 5.09038 18.2273 5.11013 18.2168 5.12972 18.192 5.1461 18.1527 5.1591 18.1135 5.17227 18.0559 5.18138 17.98 5.18662 17.904 5.19185 17.8007 5.19438 17.6698 5.19455 17.5599 5.19455 17.4721 5.19185 17.4068 5.18662 17.3412 5.18138 17.2896 5.17159 17.2516 5.15724 17.2136 5.14272 17.1869 5.12448 17.1712 5.1022 17.1553 5.07991 17.1424 5.05306 17.1319 5.02166L16.6763 3.88705C16.6215 3.75873 16.5678 3.64493 16.5154 3.54549 16.4631 3.44604 16.4049 3.3628 16.3407 3.29611 16.2765 3.22942 16.2026 3.17893 16.1188 3.145 16.0351 3.11089 15.9383 3.09384 15.8283 3.09384L15.5065 3.09384 15.5065 5.0296C15.5065 5.05577 15.4978 5.07923 15.481 5.10017 15.4639 5.12111 15.4357 5.13816 15.3964 5.15133 15.3572 5.16433 15.3049 5.1748 15.2394 5.18273 15.174 5.1905 15.0903 5.19455 14.9881 5.19455 14.8887 5.19455 14.8056 5.1905 14.7387 5.18273 14.672 5.1748 14.619 5.16433 14.5799 5.15133 14.5405 5.13816 14.513 5.12111 14.4973 5.10017 14.4816 5.07923 14.4738 5.05577 14.4738 5.0296L14.4738 0.416192C14.4738 0.301043 14.5032 0.217973 14.5621 0.166815 14.6211 0.115825 14.6937 0.0903298 14.7801 0.0903298L16.0954 0.0903298C16.2288 0.0903298 16.3388 0.0928624 16.4251 0.0980964 16.5116 0.103331 16.5901 0.109915 16.6607 0.117851ZM21.5089 0.0726015C21.6006 0.0764848 21.6718 0.0857711 21.7228 0.100123 21.774 0.114474 21.8106 0.136086 21.8329 0.164957 21.855 0.19366 21.8741 0.233 21.8898 0.282639L23.4602 4.78613C23.4918 4.88034 23.5113 4.95497 23.5191 5.01001 23.527 5.06488 23.5166 5.10608 23.4877 5.1336 23.459 5.16112 23.4078 5.17818 23.3346 5.18459 23.2613 5.19118 23.1605 5.19455 23.0323 5.19455 22.8988 5.19455 22.7948 5.19253 22.7202 5.18864 22.6455 5.18459 22.5886 5.17682 22.5493 5.16501 22.5101 5.15319 22.4826 5.13681 22.4669 5.11587 22.4512 5.09494 22.4382 5.06758 22.4276 5.03348L22.086 4.01267 20.1779 4.01267 19.856 5.00596C19.8455 5.0426 19.8318 5.07349 19.8148 5.09831 19.7977 5.12313 19.7702 5.14272 19.7322 5.15724 19.6944 5.17159 19.6407 5.18138 19.5713 5.18662 19.5019 5.19185 19.4109 5.19455 19.2984 5.19455 19.1781 5.19455 19.0838 5.1905 19.0156 5.18273 18.9476 5.1748 18.9005 5.15589 18.8743 5.12583 18.8481 5.09561 18.839 5.05306 18.8468 4.99819 18.8547 4.94315 18.8743 4.86987 18.9057 4.77836L20.4724 0.27082C20.4881 0.226415 20.5063 0.190452 20.5273 0.162931 20.5482 0.13541 20.5816 0.114474 20.6274 0.100123 20.6733 0.0857711 20.7368 0.0764848 20.8178 0.0726015 20.899 0.0687182 21.0064 0.0666921 21.1398 0.0666921 21.2943 0.0666921 21.4172 0.0687182 21.5089 0.0726015ZM28.0845 0.0844203C28.1448 0.0910051 28.1913 0.102149 28.224 0.117851 28.2568 0.133553 28.2796 0.151788 28.2927 0.172724 28.3057 0.19366 28.3123 0.217298 28.3123 0.243468L28.3123 4.80976C28.3123 4.86987 28.3018 4.92356 28.2809 4.97067 28.26 5.01778 28.2318 5.05712 28.1965 5.08852 28.1612 5.11993 28.1193 5.14272 28.0709 5.15724 28.0224 5.17159 27.9733 5.17885 27.9236 5.17885L27.484 5.17868C27.3923 5.17885 27.3131 5.16956 27.2464 5.15133 27.1796 5.13293 27.1181 5.09966 27.0619 5.05121 27.0055 5.00275 26.9513 4.93724 26.899 4.85485 26.8466 4.77245 26.7877 4.66574 26.7222 4.53489L25.4579 2.15947C25.3846 2.01815 25.31 1.86569 25.2342 1.70208 25.1582 1.53848 25.0902 1.37943 25.0299 1.22494L25.0221 1.22494C25.0326 1.41353 25.0405 1.60129 25.0458 1.78836 25.0508 1.97561 25.0535 2.16859 25.0535 2.36748L25.0535 5.02571C25.0535 5.05188 25.0464 5.07535 25.0319 5.09629 25.0176 5.11722 24.9927 5.13495 24.9573 5.1493 24.922 5.16365 24.8742 5.1748 24.8141 5.18273 24.7538 5.1905 24.6767 5.19455 24.5823 5.19455 24.4908 5.19455 24.4148 5.1905 24.3547 5.18273 24.2944 5.1748 24.2473 5.16365 24.2134 5.1493 24.1793 5.13495 24.1556 5.11722 24.1426 5.09629 24.1296 5.07535 24.1231 5.05188 24.1231 5.02571L24.1231 0.459416C24.1231 0.336331 24.159 0.244144 24.2309 0.182517 24.303 0.121059 24.3913 0.0903298 24.496 0.0903298L25.0496 0.0903298C25.1491 0.0903298 25.2328 0.0987718 25.3009 0.115825 25.3689 0.132878 25.4299 0.160905 25.4834 0.200245 25.5371 0.239416 25.5876 0.293783 25.6347 0.363176 25.6818 0.43257 25.7301 0.518341 25.7799 0.620321L26.7693 2.47757C26.8269 2.59002 26.8839 2.70061 26.9401 2.80917 26.9964 2.9179 27.0507 3.02647 27.1031 3.1352 27.1554 3.24377 27.2064 3.35047 27.2562 3.45516 27.3059 3.55984 27.3543 3.66452 27.4014 3.7692L27.4053 3.7692C27.3975 3.58601 27.3916 3.39488 27.3877 3.19599 27.3839 2.99709 27.3818 2.80731 27.3818 2.62665L27.3818 0.243468C27.3818 0.217298 27.3898 0.19366 27.4055 0.172724 27.421 0.151788 27.4472 0.133553 27.484 0.117851 27.5205 0.102149 27.5689 0.0910051 27.6292 0.0844203 27.6893 0.0778356 27.7666 0.0746276 27.8608 0.0746276 27.9498 0.0746276 28.0244 0.0778356 28.0845 0.0844203ZM31.4683 0.0432232C31.5991 0.0666921 31.7202 0.0974211 31.8315 0.13541 31.9427 0.173399 32.0428 0.217298 32.1318 0.266937 32.2208 0.316745 32.2829 0.359293 32.3184 0.394581 32.3537 0.429868 32.3778 0.459416 32.391 0.482884 32.404 0.506522 32.4145 0.536576 32.4224 0.573214 32.4302 0.609853 32.4361 0.653076 32.4399 0.702715 32.444 0.752523 32.446 0.813981 32.4459 0.887258 32.446 0.965938 32.4433 1.03263 32.4381 1.0875 32.4329 1.14254 32.4237 1.18712 32.4106 1.22106 32.3976 1.25516 32.3817 1.27998 32.3635 1.29568 32.3452 1.31139 32.3243 1.31915 32.3007 1.31915 32.2615 1.31915 32.2117 1.29636 32.1514 1.2506 32.0913 1.20468 32.0133 1.15369 31.9179 1.09746 31.8223 1.04107 31.7085 0.990082 31.5763 0.944326 31.4441 0.898401 31.2864 0.875608 31.1031 0.875608 30.9016 0.875608 30.7217 0.916805 30.5633 0.999199 30.4049 1.08176 30.2702 1.19944 30.1589 1.35258 30.0477 1.50572 29.9632 1.69094 29.9057 1.90824 29.8481 2.12537 29.8192 2.37019 29.8192 2.64236 29.8192 2.9407 29.8499 3.19919 29.9116 3.41784 29.973 3.63632 30.0607 3.81631 30.1746 3.95763 30.2884 4.09911 30.4259 4.20447 30.5869 4.2737 30.7478 4.34309 30.9292 4.37787 31.1306 4.37787 31.3138 4.37787 31.4722 4.35626 31.6057 4.31304 31.7393 4.26981 31.8537 4.22203 31.9493 4.16969 32.0449 4.11735 32.1234 4.07024 32.1848 4.02837 32.2463 3.9865 32.2941 3.96556 32.3282 3.96556 32.3543 3.96556 32.3753 3.9708 32.391 3.98126 32.4067 3.99173 32.4197 4.01267 32.4302 4.04407 32.4406 4.07548 32.4486 4.11938 32.4538 4.1756 32.459 4.23182 32.4616 4.30713 32.4616 4.40134 32.4616 4.46685 32.4597 4.5224 32.4558 4.56815 32.4518 4.61408 32.4459 4.65325 32.4381 4.686 32.4302 4.71876 32.4197 4.74679 32.4067 4.77042 32.3935 4.79406 32.3726 4.82074 32.3439 4.85096 32.315 4.88102 32.2595 4.91968 32.1769 4.96679 32.0945 5.01389 31.9937 5.05897 31.8747 5.1022 31.7556 5.14542 31.6194 5.18138 31.4663 5.21026 31.3133 5.23896 31.1476 5.25331 30.9697 5.25331 30.6215 5.25331 30.3073 5.19979 30.0274 5.0924 29.7473 4.98502 29.5091 4.82479 29.3127 4.61138 29.1165 4.39813 28.9659 4.1317 28.8612 3.81242 28.7565 3.49314 28.7042 3.12136 28.7042 2.6974 28.7042 2.2655 28.7618 1.88207 28.8769 1.54692 28.9921 1.21194 29.1531 0.930481 29.36 0.702715 29.5666 0.475118 29.8147 0.302394 30.1039 0.184543 30.3931 0.0666921 30.7119 0.00776667 31.06 0.00776667 31.2013 0.00776667 31.3374 0.0195855 31.4683 0.0432232ZM36.6149 0.0903298C36.6383 0.0903298 36.6593 0.0969146 36.6777 0.109915 36.6959 0.123085 36.7118 0.145878 36.7248 0.178633 36.7379 0.211389 36.7477 0.253261 36.7542 0.304251 36.7607 0.355241 36.7641 0.420076 36.7641 0.498587 36.7641 0.571863 36.7607 0.634166 36.7542 0.685156 36.7477 0.736145 36.7378 0.777343 36.7248 0.808747 36.7116 0.840151 36.6961 0.863114 36.6777 0.877465 36.6594 0.891985 36.6383 0.899077 36.6149 0.899077L34.801 0.899077 34.8008 2.13989 36.3361 2.13989C36.3596 2.13989 36.3812 2.14698 36.4009 2.1615 36.4205 2.17585 36.4369 2.19814 36.4499 2.22819 36.4631 2.25824 36.4729 2.29877 36.4795 2.34992 36.4859 2.40091 36.4892 2.46305 36.4892 2.53632 36.4892 2.6123 36.4859 2.67511 36.4795 2.72492 36.4729 2.77456 36.4631 2.81441 36.4499 2.84463 36.4369 2.87468 36.4205 2.89629 36.4009 2.90929 36.3812 2.92246 36.3596 2.92905 36.3361 2.92905L34.8008 2.92905 34.8008 4.36217 36.6306 4.36217C36.654 4.36217 36.6756 4.36926 36.6954 4.38378 36.715 4.39813 36.7314 4.42092 36.7444 4.45233 36.7575 4.4839 36.7673 4.5251 36.7739 4.57609 36.7803 4.62708 36.7837 4.69056 36.7837 4.76654 36.7837 4.84235 36.7803 4.90584 36.7739 4.95699 36.7673 5.00798 36.7575 5.04918 36.7444 5.08059 36.7314 5.11199 36.715 5.13495 36.6954 5.1493 36.6756 5.16365 36.654 5.17092 36.6306 5.17092L34.0785 5.17092C33.9921 5.17092 33.9195 5.14542 33.8606 5.09443 33.8016 5.04327 33.7723 4.9602 33.7723 4.84505L33.7723 0.416192C33.7723 0.301043 33.8016 0.217973 33.8606 0.166815 33.9195 0.115825 33.9921 0.0903298 34.0785 0.0903298Z" fill="#404040" fill-rule="evenodd" transform="matrix(0.995947 -0.104527 0.104379 0.994538 254.653 127.379)"/><path d="M-5.14185-12.0256C-3.70094-11.7248-3.60098-9.65921-2.77927-9.06721-1.40067-8.07041 0.438764-9.26241-0.0947627-11.2048-1.77193-17.3264-11.3326-17.9088-12.7294-11.0896-12.9708-9.91201-13.085-1.4736-12.8644-0.3152L-9.31011 0C-8.9025-1.4896-10.0721-6.42241-9.71252-8.53761-9.35295-10.6528-9.63723-12.8176-7.15393-12.6944-6.10765-12.64-5.61177-12.6464-5.14185-12.0256Z" fill="#D68D87" fill-rule="evenodd" transform="matrix(1.00145 8.75495e-08 8.74228e-08 -1 356 103)"/><path d="M0.00571691 39.8966 2.99566 40 2.99566 0.215424C2.41825 0.129255 1.72651 0.0775527 1.18912 0.0947867 0.360165 0.120638 0.171507 0 0 1.05127L0.00571691 39.8966Z" fill="#D68D87" fill-rule="evenodd" transform="matrix(1.00145 0 -0 1 343 67)"/><path d="M3.24632 44.1256C3.95054 44.2124 9.81338 42.9037 11.1989 42.6316 13.9242 42.1046 16.724 41.7398 19.5351 41.4329 24.5277 40.8943 32.3486 40.4716 37.3584 41.2418 40.6104 41.3055 44.7957 42.0525 47.7558 42.6258 49.5077 42.9616 54.5633 43.8534 56.1721 44.3688L57.2485 44.7684C57.2829 44.7857 57.3516 44.8205 57.4031 44.8552L58.9146 44.9652 58.5196 42.9732C58.302 42.6316 56.9909 37.4025 56.7161 36.4412 54.8725 29.8977 52.4449 23.5973 49.3245 17.5692 46.0954 11.3325 39.139 2.10205 30.8887 1.29134 17.7374 0 8.99464 17.3491 5.16433 27.5698 4.27689 29.9556 1.13363 38.9023 1.11646 41.0217 0.692776 41.4618 0.0801559 44.392 0 45 0.687051 44.9884 2.66232 44.5888 3.24632 44.1256Z" fill="#D68D87" fill-rule="evenodd" transform="matrix(1.00145 0 -0 1 315 23.0001)"/><path d="M21.139 38.7924 21.7122 40.2912C21.8427 40.8248 21.9449 41.5799 22.1662 42 23.88 41.1768 25.0604 39.6837 27.1658 38.9968 27.5971 37.9408 34.9234 36.0446 36.9153 35.7721 43.7195 34.8354 46.0746 36.266 48.9291 36.2093 47.7884 33.0584 43.2031 25.5361 41.1488 22.8735 37.7722 18.5134 34.5432 15.249 30.4175 12.1719 23.5339 7.03407 17.3085 4.08759 8.96636 1.77697 7.29794 1.31144 1.6968 0 0 0.0681266 9.01176 6.96594 13.9433 16.0495 17.8589 27.1428 18.5059 28.9708 21.3093 37.3106 21.139 38.7924Z" fill="#D68D87" fill-rule="evenodd" transform="matrix(1.00145 0 -0 1 354 25)"/><path d="M22.2049 38.9382C23.1313 39.2325 23.9477 39.9003 24.6946 40.0871 24.9204 40.3701 24.7699 40.1889 25.0304 40.421 25.0709 40.4606 25.3083 40.6587 25.372 40.7096 25.731 40.9983 25.7368 41.0153 26.1247 41.2586L27.2712 42 27.5317 41.202 31.0231 29.0904C32.4359 25.0381 33.7676 21.5575 35.632 17.7712 39.5866 9.72888 43.2517 5.55774 49.9276 0.130171 46.083 0 36.101 3.13543 32.7891 4.44846 20.4273 9.32705 10.341 17.8335 3.74038 29.1414 2.74449 30.8506 0.723757 34.2124 0 36.165 1.77176 36.1989 3.91408 35.5594 5.85375 35.4801 8.06555 35.3896 10.2889 35.4462 12.3676 35.7065 14.3246 35.9556 21.8169 37.9477 22.2049 38.9382Z" fill="#D68D87" fill-rule="evenodd" transform="matrix(1.00145 0 -0 1 286 25)"/><path d="M1.17682 1.54858 1.18181 8.80574C1.19178 11.9715 0 9.60574 0.144609 11.9715L3.88451 12C3.99421 10.0857 3.53545 11.32 3.06173 10.2115 2.20405 8.7486 3.52548 1.80572 2.46833 0.0400001L1.56078 0C1.2965 0.474287 1.17682 0.811431 1.17682 1.54858Z" fill="#D68D87" fill-rule="evenodd" transform="matrix(1.00145 0 -0 1 343 11)"/></g></svg>